<svg width="909" height="766" viewBox="0 0 909 766" fill="none" xmlns="http://www.w3.org/2000/svg">
<path d="M100.73 0V742" stroke="#212A36"/>
<path d="M195.73 0V742" stroke="#212A36"/>
<path d="M290.73 0V742" stroke="#212A36"/>
<path d="M385.73 0V742" stroke="#212A36"/>
<path d="M480.73 0V742" stroke="#212A36"/>
<path d="M575.73 0V742" stroke="#212A36"/>
<path d="M670.73 0V742" stroke="#212A36"/>
<path d="M765.73 0V742" stroke="#212A36"/>
<path d="M0 743L909 743" stroke="#212A36"/>
<path d="M1.21362 0L1.21366 743" stroke="#212A36"/>
<path d="M1.21362 43H715.214" stroke="#212A36"/>
<path d="M1.21362 84H715.214" stroke="#212A36"/>
<path d="M1.21362 125H715.214" stroke="#212A36"/>
<path d="M1.21362 166H715.214" stroke="#212A36"/>
<path d="M1.21362 207H715.214" stroke="#212A36"/>
<path d="M1.21362 248H715.214" stroke="#212A36"/>
<path d="M1.21362 289H715.214" stroke="#212A36"/>
<path d="M1.21362 330H715.214" stroke="#212A36"/>
<path d="M1.21362 371H715.214" stroke="#212A36"/>
<path d="M1.21362 412H715.214" stroke="#212A36"/>
<path d="M1.21362 453H715.214" stroke="#212A36"/>
<path d="M1.21362 494H715.214" stroke="#212A36"/>
<path d="M1.21362 535H715.214" stroke="#212A36"/>
<path d="M1.21362 576H715.214" stroke="#212A36"/>
<path d="M1.21362 617H715.214" stroke="#212A36"/>
<path d="M1.21362 658H715.214" stroke="#212A36"/>
<path d="M1.21362 699H715.214" stroke="#212A36"/>
<g clip-path="url(#clip0_117_1416)">
<path d="M891.2 758C891.2 757.423 891.289 756.864 891.456 756.33C891.903 756.35 892.348 756.267 892.741 756.091C893.135 755.915 893.461 755.653 893.685 755.333C893.909 755.014 894.022 754.65 894.01 754.281C893.998 753.912 893.863 753.554 893.62 753.244C894.598 752.451 895.805 751.877 897.127 751.574C897.33 751.903 897.64 752.179 898.021 752.372C898.403 752.565 898.842 752.668 899.29 752.668C899.738 752.668 900.178 752.565 900.559 752.372C900.941 752.179 901.251 751.903 901.454 751.574C902.776 751.877 903.983 752.451 904.961 753.244C904.717 753.554 904.582 753.913 904.57 754.282C904.559 754.65 904.671 755.015 904.895 755.334C905.119 755.654 905.446 755.916 905.84 756.092C906.233 756.268 906.678 756.35 907.126 756.331C907.292 756.864 907.381 757.423 907.381 758C907.381 758.576 907.292 759.135 907.126 759.669C906.678 759.649 906.234 759.732 905.84 759.908C905.447 760.084 905.12 760.346 904.896 760.665C904.672 760.985 904.559 761.349 904.571 761.718C904.582 762.087 904.718 762.445 904.961 762.755C903.983 763.548 902.776 764.123 901.454 764.425C901.251 764.096 900.941 763.82 900.559 763.627C900.178 763.434 899.738 763.332 899.29 763.332C898.842 763.332 898.403 763.434 898.021 763.627C897.64 763.82 897.33 764.096 897.127 764.425C895.805 764.123 894.598 763.548 893.62 762.755C893.864 762.445 893.999 762.086 894.011 761.718C894.022 761.349 893.91 760.984 893.686 760.665C893.462 760.345 893.135 760.083 892.741 759.907C892.348 759.731 891.902 759.649 891.455 759.668C891.289 759.136 891.2 758.577 891.2 758ZM895.087 760C895.597 760.727 895.743 761.564 895.544 762.349C895.874 762.542 896.225 762.71 896.593 762.849C897.335 762.301 898.296 761.999 899.291 762C900.311 762 901.264 762.314 901.99 762.849C902.358 762.71 902.709 762.542 903.039 762.349C902.835 761.546 902.997 760.71 903.495 760C903.992 759.289 904.791 758.755 905.736 758.5C905.774 758.167 905.774 757.832 905.736 757.5C904.79 757.244 903.992 756.71 903.494 756C902.996 755.29 902.834 754.453 903.038 753.65C902.708 753.457 902.357 753.289 901.989 753.15C901.247 753.698 900.287 754 899.291 754C898.296 754 897.335 753.698 896.593 753.15C896.225 753.289 895.874 753.457 895.544 753.65C895.748 754.453 895.585 755.29 895.087 756C894.59 756.71 893.792 757.244 892.846 757.5C892.809 757.832 892.809 758.167 892.846 758.5C893.792 758.755 894.591 759.289 895.088 760H895.087ZM899.291 760C898.647 760 898.03 759.789 897.575 759.414C897.12 759.039 896.864 758.53 896.864 758C896.864 757.469 897.12 756.96 897.575 756.585C898.03 756.21 898.647 756 899.291 756C899.935 756 900.552 756.21 901.008 756.585C901.463 756.96 901.718 757.469 901.718 758C901.718 758.53 901.463 759.039 901.008 759.414C900.552 759.789 899.935 760 899.291 760ZM899.291 758.666C899.506 758.666 899.712 758.596 899.863 758.471C900.015 758.346 900.1 758.176 900.1 758C900.1 757.823 900.015 757.653 899.863 757.528C899.712 757.403 899.506 757.333 899.291 757.333C899.077 757.333 898.871 757.403 898.719 757.528C898.567 757.653 898.482 757.823 898.482 758C898.482 758.176 898.567 758.346 898.719 758.471C898.871 758.596 899.077 758.666 899.291 758.666Z" fill="white"/>
</g>
<rect x="830.115" y="210" width="1.21362" height="74" fill="#26A69A"/>
<rect x="825.261" y="265" width="10.9226" height="10" fill="#26A69A"/>
<rect x="373.795" y="411" width="1.21362" height="21" fill="#EF5350"/>
<rect x="368.94" y="413" width="10.9226" height="10" fill="#EF5350"/>
<rect x="838.61" y="274" width="10.9226" height="13" fill="#EF5350"/>
<rect x="382.29" y="422" width="10.9226" height="13" fill="#EF5350"/>
<rect x="395.64" y="432" width="10.9226" height="32" fill="#EF5350"/>
<rect x="571.615" y="576.683" width="10.2295" height="13.1117" fill="#26A69A"/>
<rect x="576.16" y="572" width="1.13661" height="22.4772" fill="#26A69A"/>
<rect x="23.9642" y="451.767" width="1.21362" height="22.4772" fill="#26A69A"/>
<rect x="19.4178" y="456" width="10.9226" height="60" fill="#26A69A"/>
<rect x="584.964" y="567" width="10.9226" height="7" fill="#26A69A"/>
<rect x="589.51" y="556" width="1.13661" height="22.4772" fill="#26A69A"/>
<rect x="32.7675" y="445" width="10.9226" height="21" fill="#26A69A"/>
<rect x="37.6221" y="441" width="1.21362" height="28" fill="#26A69A"/>
<rect x="598.314" y="539" width="10.9226" height="21" fill="#26A69A"/>
<rect x="603.168" y="535" width="1.21362" height="27" fill="#26A69A"/>
<rect x="64.322" y="430" width="1.21362" height="30" fill="#26A69A"/>
<rect x="59.4673" y="438" width="10.9226" height="9" fill="#26A69A"/>
<rect x="629.868" y="526" width="1.21362" height="30" fill="#26A69A"/>
<rect x="625.013" y="534" width="10.9226" height="9" fill="#26A69A"/>
<rect x="77.6716" y="412" width="1.21362" height="30" fill="#26A69A"/>
<rect x="72.8169" y="425" width="10.9226" height="14" fill="#26A69A"/>
<rect x="736.666" y="387" width="1.21362" height="30" fill="#26A69A"/>
<rect x="731.812" y="400" width="10.9226" height="14" fill="#26A69A"/>
<rect x="638.363" y="521" width="10.9226" height="14" fill="#26A69A"/>
<rect x="104.371" y="402" width="1.21362" height="30" fill="#26A69A"/>
<rect x="99.5167" y="413" width="10.9226" height="16" fill="#26A69A"/>
<rect x="763.366" y="344" width="1.21362" height="53" fill="#26A69A"/>
<rect x="758.511" y="373" width="10.9226" height="16" fill="#26A69A"/>
<rect x="669.918" y="498" width="1.21362" height="30" fill="#26A69A"/>
<rect x="665.063" y="509" width="10.9226" height="16" fill="#26A69A"/>
<rect x="117.721" y="389" width="1.21362" height="26" fill="#26A69A"/>
<rect x="112.866" y="392" width="10.9226" height="21" fill="#26A69A"/>
<rect x="776.716" y="351" width="1.21362" height="26" fill="#26A69A"/>
<rect x="771.861" y="354" width="10.9226" height="21" fill="#26A69A"/>
<rect x="144.421" y="354" width="1.21362" height="45" fill="#26A69A"/>
<rect x="139.566" y="364" width="10.9226" height="24" fill="#26A69A"/>
<rect x="803.415" y="278" width="1.21362" height="45" fill="#26A69A"/>
<rect x="798.56" y="288" width="10.9226" height="77" fill="#26A69A"/>
<rect x="355.59" y="429" width="10.9226" height="9" fill="#26A69A"/>
<rect x="126.217" y="388" width="10.9226" height="5" fill="#26A69A"/>
<rect x="785.211" y="363" width="10.9226" height="5" fill="#EF5350"/>
<rect x="91.0212" y="425" width="1.21362" height="8" fill="#26A69A"/>
<rect x="86.1671" y="426" width="10.9226" height="5" fill="#26A69A"/>
<rect x="750.017" y="377" width="1.21362" height="11" fill="#26A69A"/>
<rect x="745.162" y="387" width="10.9226" height="5" fill="#26A69A"/>
<rect x="656.568" y="521" width="1.21362" height="8" fill="#26A69A"/>
<rect x="651.713" y="522" width="10.9226" height="5" fill="#26A69A"/>
<rect x="157.771" y="345" width="1.21362" height="26" fill="#EF5350"/>
<rect x="152.916" y="364" width="10.9226" height="4" fill="#EF5350"/>
<rect x="184.47" y="357" width="1.21362" height="21" fill="#EF5350"/>
<rect x="179.616" y="359" width="10.9226" height="10" fill="#EF5350"/>
<rect x="192.965" y="368" width="10.9226" height="13" fill="#EF5350"/>
<rect x="208.742" y="379" width="10.9226" height="32" fill="#EF5350"/>
<rect x="226.946" y="380" width="1.21362" height="45" fill="#26A69A"/>
<rect x="222.092" y="398" width="10.9226" height="13" fill="#26A69A"/>
<rect x="248.792" y="409" width="10.9226" height="9" fill="#26A69A"/>
<rect x="288.841" y="434" width="10.9226" height="10" fill="#26A69A"/>
<rect x="307.045" y="413" width="1.21362" height="20" fill="#26A69A"/>
<rect x="302.191" y="430" width="10.9226" height="6" fill="#26A69A"/>
<rect x="328.891" y="439" width="10.9226" height="3" fill="#26A69A"/>
<rect x="347.095" y="429" width="1.21362" height="14" fill="#26A69A"/>
<rect x="342.24" y="435" width="10.9226" height="4" fill="#26A69A"/>
<rect x="427.194" y="456" width="1.21362" height="29" fill="#26A69A"/>
<rect x="422.339" y="461" width="10.9226" height="7" fill="#26A69A"/>
<rect x="493.942" y="520" width="1.21362" height="29" fill="#26A69A"/>
<rect x="489.088" y="525" width="10.9226" height="7" fill="#26A69A"/>
<rect x="532.778" y="542" width="1.21362" height="30" fill="#26A69A"/>
<rect x="529.138" y="557" width="10.9226" height="8" fill="#26A69A"/>
<rect x="440.543" y="412" width="1.21362" height="55" fill="#26A69A"/>
<rect x="435.689" y="437" width="10.9226" height="25" fill="#26A69A"/>
<rect x="696.617" y="400" width="1.21362" height="111" fill="#26A69A"/>
<rect x="691.762" y="409" width="10.9226" height="96" fill="#26A69A"/>
<rect x="240.297" y="389" width="1.21362" height="33" fill="#EF5350"/>
<rect x="235.442" y="398" width="10.9226" height="20" fill="#EF5350"/>
<rect x="280.346" y="415" width="1.21362" height="45" fill="#EF5350"/>
<rect x="275.491" y="415" width="10.9226" height="29" fill="#EF5350"/>
<rect x="262.141" y="409" width="10.9226" height="6" fill="#EF5350"/>
<rect x="320.395" y="425" width="1.21362" height="20" fill="#EF5350"/>
<rect x="315.541" y="429" width="10.9226" height="13" fill="#EF5350"/>
<rect x="709.967" y="407" width="1.21362" height="21" fill="#EF5350"/>
<rect x="705.112" y="412" width="10.9226" height="12" fill="#EF5350"/>
<rect x="408.989" y="462" width="10.9226" height="6" fill="#EF5350"/>
<rect x="683.267" y="505" width="1.21362" height="10" fill="#EF5350"/>
<rect x="678.413" y="508" width="10.9226" height="5" fill="#EF5350"/>
<rect x="453.893" y="446" width="1.21362" height="18" fill="#EF5350"/>
<rect x="449.039" y="446" width="10.9226" height="8" fill="#EF5350"/>
<rect x="507.292" y="539" width="1.21362" height="18" fill="#EF5350"/>
<rect x="502.438" y="539" width="10.9226" height="14" fill="#EF5350"/>
<rect x="480.593" y="456" width="1.21362" height="77" fill="#EF5350"/>
<rect x="475.739" y="463" width="10.9226" height="65" fill="#EF5350"/>
<rect x="520.642" y="547" width="1.21362" height="20" fill="#EF5350"/>
<rect x="515.787" y="550" width="10.9226" height="15" fill="#EF5350"/>
<rect x="723.316" y="418" width="1.21362" height="10" fill="#EF5350"/>
<rect x="718.462" y="425" width="10.9226" height="3" fill="#EF5350"/>
<rect x="558.264" y="588" width="10.9226" height="13" fill="#EF5350"/>
<rect x="462.388" y="454" width="10.9226" height="10" fill="#EF5350"/>
<rect x="46.1177" y="443" width="10.9226" height="7" fill="#EF5350"/>
<rect x="616.518" y="522" width="1.21362" height="18" fill="#EF5350"/>
<rect x="611.663" y="532" width="10.9226" height="11" fill="#EF5350"/>
<rect x="811.91" y="281" width="10.9226" height="9" fill="#26A69A"/>
<rect x="816.765" y="278" width="1.21362" height="17" fill="#26A69A"/>
<rect x="547.342" y="554" width="1.21362" height="80" fill="#EF5350"/>
<rect x="542.487" y="557" width="10.9226" height="39" fill="#EF5350"/>
<rect x="166.265" y="341" width="10.9226" height="35" fill="#26A69A"/>
<rect x="171.12" y="301" width="1.21362" height="79" fill="#26A69A"/>
<g opacity="0.3">
<rect x="831.328" y="705" width="10.9226" height="27" fill="#26A69A"/>
<rect x="375.008" y="722" width="10.9226" height="10" fill="#EF5350"/>
<rect x="844.678" y="719" width="10.9226" height="13" fill="#EF5350"/>
<rect x="388.358" y="719" width="10.9226" height="13" fill="#EF5350"/>
<rect x="401.708" y="700" width="10.9226" height="32" fill="#EF5350"/>
<rect x="577.682" y="719" width="10.2295" height="13.1117" fill="#26A69A"/>
<rect x="30.0325" y="710" width="1.21362" height="22.4772" fill="#26A69A"/>
<rect x="25.4862" y="672" width="10.9226" height="60" fill="#26A69A"/>
<rect x="591.032" y="725" width="10.9226" height="7" fill="#26A69A"/>
<rect x="38.8358" y="711" width="10.9226" height="21" fill="#26A69A"/>
<rect x="604.381" y="711" width="10.9226" height="21" fill="#26A69A"/>
<rect x="65.5356" y="723" width="10.9226" height="9" fill="#26A69A"/>
<rect x="631.082" y="723" width="10.9226" height="9" fill="#26A69A"/>
<rect x="78.8853" y="718" width="10.9226" height="14" fill="#26A69A"/>
<rect x="737.88" y="718" width="10.9226" height="14" fill="#26A69A"/>
<rect x="644.431" y="718" width="10.9226" height="14" fill="#26A69A"/>
<rect x="105.585" y="716" width="10.9226" height="16" fill="#26A69A"/>
<rect x="764.579" y="716" width="10.9226" height="16" fill="#26A69A"/>
<rect x="671.131" y="716" width="10.9226" height="16" fill="#26A69A"/>
<rect x="118.935" y="711" width="10.9226" height="21" fill="#26A69A"/>
<rect x="777.93" y="711" width="10.9226" height="21" fill="#26A69A"/>
<rect x="145.634" y="708" width="10.9226" height="24" fill="#26A69A"/>
<rect x="809.484" y="687" width="1.21362" height="45" fill="#26A69A"/>
<rect x="804.629" y="655" width="10.9226" height="77" fill="#26A69A"/>
<rect x="361.658" y="723" width="10.9226" height="9" fill="#26A69A"/>
<rect x="132.284" y="727" width="10.9226" height="5" fill="#26A69A"/>
<rect x="791.279" y="727" width="10.9226" height="5" fill="#EF5350"/>
<rect x="92.2349" y="727" width="10.9226" height="5" fill="#26A69A"/>
<rect x="751.229" y="727" width="10.9226" height="5" fill="#26A69A"/>
<rect x="657.781" y="727" width="10.9226" height="5" fill="#26A69A"/>
<rect x="158.984" y="728" width="10.9226" height="4" fill="#EF5350"/>
<rect x="185.683" y="722" width="10.9226" height="10" fill="#EF5350"/>
<rect x="199.034" y="719" width="10.9226" height="13" fill="#EF5350"/>
<rect x="214.811" y="700" width="10.9226" height="32" fill="#EF5350"/>
<rect x="228.16" y="719" width="10.9226" height="13" fill="#26A69A"/>
<rect x="254.86" y="723" width="10.9226" height="9" fill="#26A69A"/>
<rect x="294.909" y="722" width="10.9226" height="10" fill="#26A69A"/>
<rect x="308.259" y="726" width="10.9226" height="6" fill="#26A69A"/>
<rect x="334.959" y="729" width="10.9226" height="3" fill="#26A69A"/>
<rect x="348.308" y="728" width="10.9226" height="4" fill="#26A69A"/>
<rect x="428.407" y="725" width="10.9226" height="7" fill="#26A69A"/>
<rect x="495.156" y="725" width="10.9226" height="7" fill="#26A69A"/>
<rect x="535.205" y="724" width="10.9226" height="8" fill="#26A69A"/>
<rect x="441.757" y="707" width="10.9226" height="25" fill="#26A69A"/>
<rect x="697.83" y="636" width="10.9226" height="96" fill="#26A69A"/>
<rect x="241.51" y="712" width="10.9226" height="20" fill="#EF5350"/>
<rect x="281.56" y="703" width="10.9226" height="29" fill="#EF5350"/>
<rect x="268.21" y="726" width="10.9226" height="6" fill="#EF5350"/>
<rect x="321.609" y="719" width="10.9226" height="13" fill="#EF5350"/>
<rect x="711.18" y="720" width="10.9226" height="12" fill="#EF5350"/>
<rect x="415.057" y="726" width="10.9226" height="6" fill="#EF5350"/>
<rect x="684.48" y="727" width="10.9226" height="5" fill="#EF5350"/>
<rect x="455.107" y="724" width="10.9226" height="8" fill="#EF5350"/>
<rect x="508.506" y="718" width="10.9226" height="14" fill="#EF5350"/>
<rect x="481.806" y="667" width="10.9226" height="65" fill="#EF5350"/>
<rect x="521.856" y="717" width="10.9226" height="15" fill="#EF5350"/>
<rect x="724.53" y="729" width="10.9226" height="3" fill="#EF5350"/>
<rect x="564.333" y="719" width="10.9226" height="13" fill="#EF5350"/>
<rect x="468.457" y="722" width="10.9226" height="10" fill="#EF5350"/>
<rect x="52.1854" y="725" width="10.9226" height="7" fill="#EF5350"/>
<rect x="617.732" y="721" width="10.9226" height="11" fill="#EF5350"/>
<rect x="817.979" y="723" width="10.9226" height="9" fill="#26A69A"/>
<rect x="548.556" y="693" width="10.9226" height="39" fill="#EF5350"/>
<rect x="172.334" y="697" width="10.9226" height="35" fill="#26A69A"/>
</g>
<path d="M11.7003 754.08V761H10.7903V755.84L8.4903 761H7.8503L5.5403 755.83V761H4.6303V754.08H5.6103L8.1703 759.8L10.7303 754.08H11.7003ZM15.6336 761.09C15.1202 761.09 14.6536 760.973 14.2336 760.74C13.8202 760.507 13.4936 760.177 13.2536 759.75C13.0202 759.317 12.9036 758.817 12.9036 758.25C12.9036 757.69 13.0236 757.197 13.2636 756.77C13.5102 756.337 13.8436 756.007 14.2636 755.78C14.6836 755.547 15.1536 755.43 15.6736 755.43C16.1936 755.43 16.6636 755.547 17.0836 755.78C17.5036 756.007 17.8336 756.333 18.0736 756.76C18.3202 757.187 18.4436 757.683 18.4436 758.25C18.4436 758.817 18.3169 759.317 18.0636 759.75C17.8169 760.177 17.4802 760.507 17.0536 760.74C16.6269 760.973 16.1536 761.09 15.6336 761.09ZM15.6336 760.29C15.9602 760.29 16.2669 760.213 16.5536 760.06C16.8402 759.907 17.0702 759.677 17.2436 759.37C17.4236 759.063 17.5136 758.69 17.5136 758.25C17.5136 757.81 17.4269 757.437 17.2536 757.13C17.0802 756.823 16.8536 756.597 16.5736 756.45C16.2936 756.297 15.9902 756.22 15.6636 756.22C15.3302 756.22 15.0236 756.297 14.7436 756.45C14.4702 756.597 14.2502 756.823 14.0836 757.13C13.9169 757.437 13.8336 757.81 13.8336 758.25C13.8336 758.697 13.9136 759.073 14.0736 759.38C14.2402 759.687 14.4602 759.917 14.7336 760.07C15.0069 760.217 15.3069 760.29 15.6336 760.29ZM22.3101 755.42C22.9767 755.42 23.5167 755.623 23.9301 756.03C24.3434 756.43 24.5501 757.01 24.5501 757.77V761H23.6501V757.9C23.6501 757.353 23.5134 756.937 23.2401 756.65C22.9667 756.357 22.5934 756.21 22.1201 756.21C21.6401 756.21 21.2567 756.36 20.9701 756.66C20.6901 756.96 20.5501 757.397 20.5501 757.97V761H19.6401V755.52H20.5501V756.3C20.7301 756.02 20.9734 755.803 21.2801 755.65C21.5934 755.497 21.9367 755.42 22.3101 755.42Z" fill="#A4A8AB"/>
<path d="M108.316 754.03V754.77H106.416V761H105.506V754.77H103.596V754.03H108.316ZM114.296 755.52V761H113.386V760.19C113.213 760.47 112.969 760.69 112.656 760.85C112.349 761.003 112.009 761.08 111.636 761.08C111.209 761.08 110.826 760.993 110.486 760.82C110.146 760.64 109.876 760.373 109.676 760.02C109.483 759.667 109.386 759.237 109.386 758.73V755.52H110.286V758.61C110.286 759.15 110.423 759.567 110.696 759.86C110.969 760.147 111.343 760.29 111.816 760.29C112.303 760.29 112.686 760.14 112.966 759.84C113.246 759.54 113.386 759.103 113.386 758.53V755.52H114.296ZM120.833 758.05C120.833 758.223 120.823 758.407 120.803 758.6H116.423C116.456 759.14 116.639 759.563 116.973 759.87C117.313 760.17 117.723 760.32 118.203 760.32C118.596 760.32 118.923 760.23 119.183 760.05C119.449 759.863 119.636 759.617 119.743 759.31H120.723C120.576 759.837 120.283 760.267 119.843 760.6C119.403 760.927 118.856 761.09 118.203 761.09C117.683 761.09 117.216 760.973 116.803 760.74C116.396 760.507 116.076 760.177 115.843 759.75C115.609 759.317 115.493 758.817 115.493 758.25C115.493 757.683 115.606 757.187 115.833 756.76C116.059 756.333 116.376 756.007 116.783 755.78C117.196 755.547 117.669 755.43 118.203 755.43C118.723 755.43 119.183 755.543 119.583 755.77C119.983 755.997 120.289 756.31 120.503 756.71C120.723 757.103 120.833 757.55 120.833 758.05ZM119.893 757.86C119.893 757.513 119.816 757.217 119.663 756.97C119.509 756.717 119.299 756.527 119.033 756.4C118.773 756.267 118.483 756.2 118.163 756.2C117.703 756.2 117.309 756.347 116.983 756.64C116.663 756.933 116.479 757.34 116.433 757.86H119.893Z" fill="#A4A8AB"/>
<path d="M226.94 754.03L224.92 761H223.9L222.28 755.39L220.6 761L219.59 761.01L217.64 754.03H218.61L220.13 759.94L221.81 754.03H222.83L224.43 759.92L225.96 754.03H226.94ZM232.936 758.05C232.936 758.223 232.926 758.407 232.906 758.6H228.526C228.559 759.14 228.742 759.563 229.076 759.87C229.416 760.17 229.826 760.32 230.306 760.32C230.699 760.32 231.026 760.23 231.286 760.05C231.552 759.863 231.739 759.617 231.846 759.31H232.826C232.679 759.837 232.386 760.267 231.946 760.6C231.506 760.927 230.959 761.09 230.306 761.09C229.786 761.09 229.319 760.973 228.906 760.74C228.499 760.507 228.179 760.177 227.946 759.75C227.712 759.317 227.596 758.817 227.596 758.25C227.596 757.683 227.709 757.187 227.936 756.76C228.162 756.333 228.479 756.007 228.886 755.78C229.299 755.547 229.772 755.43 230.306 755.43C230.826 755.43 231.286 755.543 231.686 755.77C232.086 755.997 232.392 756.31 232.606 756.71C232.826 757.103 232.936 757.55 232.936 758.05ZM231.996 757.86C231.996 757.513 231.919 757.217 231.766 756.97C231.612 756.717 231.402 756.527 231.136 756.4C230.876 756.267 230.586 756.2 230.266 756.2C229.806 756.2 229.412 756.347 229.086 756.64C228.766 756.933 228.582 757.34 228.536 757.86H231.996ZM233.797 758.24C233.797 757.68 233.91 757.19 234.137 756.77C234.363 756.343 234.673 756.013 235.067 755.78C235.467 755.547 235.913 755.43 236.407 755.43C236.833 755.43 237.23 755.53 237.597 755.73C237.963 755.923 238.243 756.18 238.437 756.5V753.6H239.357V761H238.437V759.97C238.257 760.297 237.99 760.567 237.637 760.78C237.283 760.987 236.87 761.09 236.397 761.09C235.91 761.09 235.467 760.97 235.067 760.73C234.673 760.49 234.363 760.153 234.137 759.72C233.91 759.287 233.797 758.793 233.797 758.24ZM238.437 758.25C238.437 757.837 238.353 757.477 238.187 757.17C238.02 756.863 237.793 756.63 237.507 756.47C237.227 756.303 236.917 756.22 236.577 756.22C236.237 756.22 235.927 756.3 235.647 756.46C235.367 756.62 235.143 756.853 234.977 757.16C234.81 757.467 234.727 757.827 234.727 758.24C234.727 758.66 234.81 759.027 234.977 759.34C235.143 759.647 235.367 759.883 235.647 760.05C235.927 760.21 236.237 760.29 236.577 760.29C236.917 760.29 237.227 760.21 237.507 760.05C237.793 759.883 238.02 759.647 238.187 759.34C238.353 759.027 238.437 758.663 238.437 758.25Z" fill="#A4A8AB"/>
<path d="M338.806 754.03V754.77H336.906V761H335.996V754.77H334.086V754.03H338.806ZM342.646 755.42C343.059 755.42 343.433 755.51 343.766 755.69C344.099 755.863 344.359 756.127 344.546 756.48C344.739 756.833 344.836 757.263 344.836 757.77V761H343.936V757.9C343.936 757.353 343.799 756.937 343.526 756.65C343.253 756.357 342.879 756.21 342.406 756.21C341.926 756.21 341.543 756.36 341.256 756.66C340.976 756.96 340.836 757.397 340.836 757.97V761H339.926V753.6H340.836V756.3C341.016 756.02 341.263 755.803 341.576 755.65C341.896 755.497 342.253 755.42 342.646 755.42ZM351.182 755.52V761H350.272V760.19C350.099 760.47 349.856 760.69 349.542 760.85C349.236 761.003 348.896 761.08 348.522 761.08C348.096 761.08 347.712 760.993 347.372 760.82C347.032 760.64 346.762 760.373 346.562 760.02C346.369 759.667 346.272 759.237 346.272 758.73V755.52H347.172V758.61C347.172 759.15 347.309 759.567 347.582 759.86C347.856 760.147 348.229 760.29 348.702 760.29C349.189 760.29 349.572 760.14 349.852 759.84C350.132 759.54 350.272 759.103 350.272 758.53V755.52H351.182Z" fill="#A4A8AB"/>
<path d="M452.988 754.03V754.77H449.958V757.12H452.418V757.86H449.958V761H449.048V754.03H452.988ZM454.997 756.41C455.157 756.097 455.384 755.853 455.677 755.68C455.977 755.507 456.34 755.42 456.767 755.42V756.36H456.527C455.507 756.36 454.997 756.913 454.997 758.02V761H454.087V755.52H454.997V756.41ZM458.288 754.63C458.114 754.63 457.968 754.57 457.848 754.45C457.728 754.33 457.668 754.183 457.668 754.01C457.668 753.837 457.728 753.69 457.848 753.57C457.968 753.45 458.114 753.39 458.288 753.39C458.454 753.39 458.594 753.45 458.708 753.57C458.828 753.69 458.888 753.837 458.888 754.01C458.888 754.183 458.828 754.33 458.708 754.45C458.594 754.57 458.454 754.63 458.288 754.63ZM458.728 755.52V761H457.818V755.52H458.728Z" fill="#A4A8AB"/>
<path d="M567.066 761.07C566.606 761.07 566.193 760.99 565.826 760.83C565.466 760.663 565.183 760.437 564.976 760.15C564.77 759.857 564.663 759.52 564.656 759.14H565.626C565.66 759.467 565.793 759.743 566.026 759.97C566.266 760.19 566.613 760.3 567.066 760.3C567.5 760.3 567.84 760.193 568.086 759.98C568.34 759.76 568.466 759.48 568.466 759.14C568.466 758.873 568.393 758.657 568.246 758.49C568.1 758.323 567.916 758.197 567.696 758.11C567.476 758.023 567.18 757.93 566.806 757.83C566.346 757.71 565.976 757.59 565.696 757.47C565.423 757.35 565.186 757.163 564.986 756.91C564.793 756.65 564.696 756.303 564.696 755.87C564.696 755.49 564.793 755.153 564.986 754.86C565.18 754.567 565.45 754.34 565.796 754.18C566.15 754.02 566.553 753.94 567.006 753.94C567.66 753.94 568.193 754.103 568.606 754.43C569.026 754.757 569.263 755.19 569.316 755.73H568.316C568.283 755.463 568.143 755.23 567.896 755.03C567.65 754.823 567.323 754.72 566.916 754.72C566.536 754.72 566.226 754.82 565.986 755.02C565.746 755.213 565.626 755.487 565.626 755.84C565.626 756.093 565.696 756.3 565.836 756.46C565.983 756.62 566.16 756.743 566.366 756.83C566.58 756.91 566.876 757.003 567.256 757.11C567.716 757.237 568.086 757.363 568.366 757.49C568.646 757.61 568.886 757.8 569.086 758.06C569.286 758.313 569.386 758.66 569.386 759.1C569.386 759.44 569.296 759.76 569.116 760.06C568.936 760.36 568.67 760.603 568.316 760.79C567.963 760.977 567.546 761.07 567.066 761.07ZM570.385 758.24C570.385 757.68 570.499 757.19 570.725 756.77C570.952 756.343 571.262 756.013 571.655 755.78C572.055 755.547 572.499 755.43 572.985 755.43C573.465 755.43 573.882 755.533 574.235 755.74C574.589 755.947 574.852 756.207 575.025 756.52V755.52H575.945V761H575.025V759.98C574.845 760.3 574.575 760.567 574.215 760.78C573.862 760.987 573.449 761.09 572.975 761.09C572.489 761.09 572.049 760.97 571.655 760.73C571.262 760.49 570.952 760.153 570.725 759.72C570.499 759.287 570.385 758.793 570.385 758.24ZM575.025 758.25C575.025 757.837 574.942 757.477 574.775 757.17C574.609 756.863 574.382 756.63 574.095 756.47C573.815 756.303 573.505 756.22 573.165 756.22C572.825 756.22 572.515 756.3 572.235 756.46C571.955 756.62 571.732 756.853 571.565 757.16C571.399 757.467 571.315 757.827 571.315 758.24C571.315 758.66 571.399 759.027 571.565 759.34C571.732 759.647 571.955 759.883 572.235 760.05C572.515 760.21 572.825 760.29 573.165 760.29C573.505 760.29 573.815 760.21 574.095 760.05C574.382 759.883 574.609 759.647 574.775 759.34C574.942 759.027 575.025 758.663 575.025 758.25ZM578.593 756.27V759.5C578.593 759.767 578.65 759.957 578.763 760.07C578.877 760.177 579.073 760.23 579.353 760.23H580.023V761H579.203C578.697 761 578.317 760.883 578.063 760.65C577.81 760.417 577.683 760.033 577.683 759.5V756.27H576.973V755.52H577.683V754.14H578.593V755.52H580.023V756.27H578.593Z" fill="#A4A8AB"/>
<path d="M681.164 761.07C680.704 761.07 680.29 760.99 679.924 760.83C679.564 760.663 679.28 760.437 679.074 760.15C678.867 759.857 678.76 759.52 678.754 759.14H679.724C679.757 759.467 679.89 759.743 680.124 759.97C680.364 760.19 680.71 760.3 681.164 760.3C681.597 760.3 681.937 760.193 682.184 759.98C682.437 759.76 682.564 759.48 682.564 759.14C682.564 758.873 682.49 758.657 682.344 758.49C682.197 758.323 682.014 758.197 681.794 758.11C681.574 758.023 681.277 757.93 680.904 757.83C680.444 757.71 680.074 757.59 679.794 757.47C679.52 757.35 679.284 757.163 679.084 756.91C678.89 756.65 678.794 756.303 678.794 755.87C678.794 755.49 678.89 755.153 679.084 754.86C679.277 754.567 679.547 754.34 679.894 754.18C680.247 754.02 680.65 753.94 681.104 753.94C681.757 753.94 682.29 754.103 682.704 754.43C683.124 754.757 683.36 755.19 683.414 755.73H682.414C682.38 755.463 682.24 755.23 681.994 755.03C681.747 754.823 681.42 754.72 681.014 754.72C680.634 754.72 680.324 754.82 680.084 755.02C679.844 755.213 679.724 755.487 679.724 755.84C679.724 756.093 679.794 756.3 679.934 756.46C680.08 756.62 680.257 756.743 680.464 756.83C680.677 756.91 680.974 757.003 681.354 757.11C681.814 757.237 682.184 757.363 682.464 757.49C682.744 757.61 682.984 757.8 683.184 758.06C683.384 758.313 683.484 758.66 683.484 759.1C683.484 759.44 683.394 759.76 683.214 760.06C683.034 760.36 682.767 760.603 682.414 760.79C682.06 760.977 681.644 761.07 681.164 761.07ZM689.683 755.52V761H688.773V760.19C688.599 760.47 688.356 760.69 688.043 760.85C687.736 761.003 687.396 761.08 687.023 761.08C686.596 761.08 686.213 760.993 685.873 760.82C685.533 760.64 685.263 760.373 685.063 760.02C684.869 759.667 684.773 759.237 684.773 758.73V755.52H685.673V758.61C685.673 759.15 685.809 759.567 686.083 759.86C686.356 760.147 686.729 760.29 687.203 760.29C687.689 760.29 688.073 760.14 688.353 759.84C688.633 759.54 688.773 759.103 688.773 758.53V755.52H689.683ZM693.889 755.42C694.556 755.42 695.096 755.623 695.509 756.03C695.923 756.43 696.129 757.01 696.129 757.77V761H695.229V757.9C695.229 757.353 695.093 756.937 694.819 756.65C694.546 756.357 694.173 756.21 693.699 756.21C693.219 756.21 692.836 756.36 692.549 756.66C692.269 756.96 692.129 757.397 692.129 757.97V761H691.219V755.52H692.129V756.3C692.309 756.02 692.553 755.803 692.859 755.65C693.173 755.497 693.516 755.42 693.889 755.42Z" fill="#A4A8AB"/>
<path d="M802.979 754.08V761H802.069V755.84L799.769 761H799.129L796.819 755.83V761H795.909V754.08H796.889L799.449 759.8L802.009 754.08H802.979ZM806.913 761.09C806.399 761.09 805.933 760.973 805.513 760.74C805.099 760.507 804.773 760.177 804.533 759.75C804.299 759.317 804.183 758.817 804.183 758.25C804.183 757.69 804.303 757.197 804.543 756.77C804.789 756.337 805.123 756.007 805.543 755.78C805.963 755.547 806.433 755.43 806.953 755.43C807.473 755.43 807.943 755.547 808.363 755.78C808.783 756.007 809.113 756.333 809.353 756.76C809.599 757.187 809.723 757.683 809.723 758.25C809.723 758.817 809.596 759.317 809.343 759.75C809.096 760.177 808.759 760.507 808.333 760.74C807.906 760.973 807.433 761.09 806.913 761.09ZM806.913 760.29C807.239 760.29 807.546 760.213 807.833 760.06C808.119 759.907 808.349 759.677 808.523 759.37C808.703 759.063 808.793 758.69 808.793 758.25C808.793 757.81 808.706 757.437 808.533 757.13C808.359 756.823 808.133 756.597 807.853 756.45C807.573 756.297 807.269 756.22 806.943 756.22C806.609 756.22 806.303 756.297 806.023 756.45C805.749 756.597 805.529 756.823 805.363 757.13C805.196 757.437 805.113 757.81 805.113 758.25C805.113 758.697 805.193 759.073 805.353 759.38C805.519 759.687 805.739 759.917 806.013 760.07C806.286 760.217 806.586 760.29 806.913 760.29ZM813.589 755.42C814.256 755.42 814.796 755.623 815.209 756.03C815.622 756.43 815.829 757.01 815.829 757.77V761H814.929V757.9C814.929 757.353 814.792 756.937 814.519 756.65C814.246 756.357 813.872 756.21 813.399 756.21C812.919 756.21 812.536 756.36 812.249 756.66C811.969 756.96 811.829 757.397 811.829 757.97V761H810.919V755.52H811.829V756.3C812.009 756.02 812.252 755.803 812.559 755.65C812.872 755.497 813.216 755.42 813.589 755.42Z" fill="#A4A8AB"/>
<path d="M874.217 709.27C875.064 708.59 875.727 708.033 876.207 707.6C876.687 707.16 877.09 706.703 877.417 706.23C877.75 705.75 877.917 705.28 877.917 704.82C877.917 704.387 877.81 704.047 877.597 703.8C877.39 703.547 877.054 703.42 876.587 703.42C876.134 703.42 875.78 703.563 875.527 703.85C875.28 704.13 875.147 704.507 875.127 704.98H874.247C874.274 704.233 874.5 703.657 874.927 703.25C875.354 702.843 875.904 702.64 876.577 702.64C877.264 702.64 877.807 702.83 878.207 703.21C878.614 703.59 878.817 704.113 878.817 704.78C878.817 705.333 878.65 705.873 878.317 706.4C877.99 706.92 877.617 707.38 877.197 707.78C876.777 708.173 876.24 708.633 875.587 709.16H879.027V709.92H874.217V709.27ZM880.079 706.31C880.079 705.163 880.266 704.27 880.639 703.63C881.012 702.983 881.666 702.66 882.599 702.66C883.526 702.66 884.176 702.983 884.549 703.63C884.922 704.27 885.109 705.163 885.109 706.31C885.109 707.477 884.922 708.383 884.549 709.03C884.176 709.677 883.526 710 882.599 710C881.666 710 881.012 709.677 880.639 709.03C880.266 708.383 880.079 707.477 880.079 706.31ZM884.209 706.31C884.209 705.73 884.169 705.24 884.089 704.84C884.016 704.433 883.859 704.107 883.619 703.86C883.386 703.613 883.046 703.49 882.599 703.49C882.146 703.49 881.799 703.613 881.559 703.86C881.326 704.107 881.169 704.433 881.089 704.84C881.016 705.24 880.979 705.73 880.979 706.31C880.979 706.91 881.016 707.413 881.089 707.82C881.169 708.227 881.326 708.553 881.559 708.8C881.799 709.047 882.146 709.17 882.599 709.17C883.046 709.17 883.386 709.047 883.619 708.8C883.859 708.553 884.016 708.227 884.089 707.82C884.169 707.413 884.209 706.91 884.209 706.31ZM886.798 710.06C886.625 710.06 886.478 710 886.358 709.88C886.238 709.76 886.178 709.613 886.178 709.44C886.178 709.267 886.238 709.12 886.358 709C886.478 708.88 886.625 708.82 886.798 708.82C886.965 708.82 887.105 708.88 887.218 709C887.338 709.12 887.398 709.267 887.398 709.44C887.398 709.613 887.338 709.76 887.218 709.88C887.105 710 886.965 710.06 886.798 710.06ZM889.778 706.24C889.405 706.093 889.118 705.88 888.918 705.6C888.718 705.32 888.618 704.98 888.618 704.58C888.618 704.22 888.708 703.897 888.888 703.61C889.068 703.317 889.335 703.087 889.688 702.92C890.048 702.747 890.481 702.66 890.988 702.66C891.495 702.66 891.925 702.747 892.278 702.92C892.638 703.087 892.908 703.317 893.088 703.61C893.275 703.897 893.368 704.22 893.368 704.58C893.368 704.967 893.265 705.307 893.058 705.6C892.851 705.887 892.568 706.1 892.208 706.24C892.621 706.367 892.948 706.59 893.188 706.91C893.435 707.223 893.558 707.603 893.558 708.05C893.558 708.483 893.451 708.863 893.238 709.19C893.025 709.51 892.721 709.76 892.328 709.94C891.941 710.113 891.495 710.2 890.988 710.2C890.481 710.2 890.035 710.113 889.648 709.94C889.268 709.76 888.971 709.51 888.758 709.19C888.545 708.863 888.438 708.483 888.438 708.05C888.438 707.603 888.558 707.22 888.798 706.9C889.038 706.58 889.365 706.36 889.778 706.24ZM892.488 704.69C892.488 704.283 892.355 703.97 892.088 703.75C891.821 703.53 891.455 703.42 890.988 703.42C890.528 703.42 890.165 703.53 889.898 703.75C889.631 703.97 889.498 704.287 889.498 704.7C889.498 705.073 889.635 705.373 889.908 705.6C890.188 705.827 890.548 705.94 890.988 705.94C891.435 705.94 891.795 705.827 892.068 705.6C892.348 705.367 892.488 705.063 892.488 704.69ZM890.988 706.64C890.495 706.64 890.091 706.757 889.778 706.99C889.465 707.217 889.308 707.56 889.308 708.02C889.308 708.447 889.458 708.79 889.758 709.05C890.065 709.31 890.475 709.44 890.988 709.44C891.501 709.44 891.908 709.31 892.208 709.05C892.508 708.79 892.658 708.447 892.658 708.02C892.658 707.573 892.505 707.233 892.198 707C891.891 706.76 891.488 706.64 890.988 706.64ZM897.976 710L895.826 707.58V710H894.916V702.6H895.826V706.95L897.936 704.52H899.206L896.626 707.25L899.216 710H897.976Z" fill="#A4A8AB"/>
<path d="M874.217 669.27C875.064 668.59 875.727 668.033 876.207 667.6C876.687 667.16 877.09 666.703 877.417 666.23C877.75 665.75 877.917 665.28 877.917 664.82C877.917 664.387 877.81 664.047 877.597 663.8C877.39 663.547 877.054 663.42 876.587 663.42C876.134 663.42 875.78 663.563 875.527 663.85C875.28 664.13 875.147 664.507 875.127 664.98H874.247C874.274 664.233 874.5 663.657 874.927 663.25C875.354 662.843 875.904 662.64 876.577 662.64C877.264 662.64 877.807 662.83 878.207 663.21C878.614 663.59 878.817 664.113 878.817 664.78C878.817 665.333 878.65 665.873 878.317 666.4C877.99 666.92 877.617 667.38 877.197 667.78C876.777 668.173 876.24 668.633 875.587 669.16H879.027V669.92H874.217V669.27ZM880.079 666.31C880.079 665.163 880.266 664.27 880.639 663.63C881.012 662.983 881.666 662.66 882.599 662.66C883.526 662.66 884.176 662.983 884.549 663.63C884.922 664.27 885.109 665.163 885.109 666.31C885.109 667.477 884.922 668.383 884.549 669.03C884.176 669.677 883.526 670 882.599 670C881.666 670 881.012 669.677 880.639 669.03C880.266 668.383 880.079 667.477 880.079 666.31ZM884.209 666.31C884.209 665.73 884.169 665.24 884.089 664.84C884.016 664.433 883.859 664.107 883.619 663.86C883.386 663.613 883.046 663.49 882.599 663.49C882.146 663.49 881.799 663.613 881.559 663.86C881.326 664.107 881.169 664.433 881.089 664.84C881.016 665.24 880.979 665.73 880.979 666.31C880.979 666.91 881.016 667.413 881.089 667.82C881.169 668.227 881.326 668.553 881.559 668.8C881.799 669.047 882.146 669.17 882.599 669.17C883.046 669.17 883.386 669.047 883.619 668.8C883.859 668.553 884.016 668.227 884.089 667.82C884.169 667.413 884.209 666.91 884.209 666.31ZM886.798 670.06C886.625 670.06 886.478 670 886.358 669.88C886.238 669.76 886.178 669.613 886.178 669.44C886.178 669.267 886.238 669.12 886.358 669C886.478 668.88 886.625 668.82 886.798 668.82C886.965 668.82 887.105 668.88 887.218 669C887.338 669.12 887.398 669.267 887.398 669.44C887.398 669.613 887.338 669.76 887.218 669.88C887.105 670 886.965 670.06 886.798 670.06ZM889.778 666.24C889.405 666.093 889.118 665.88 888.918 665.6C888.718 665.32 888.618 664.98 888.618 664.58C888.618 664.22 888.708 663.897 888.888 663.61C889.068 663.317 889.335 663.087 889.688 662.92C890.048 662.747 890.481 662.66 890.988 662.66C891.495 662.66 891.925 662.747 892.278 662.92C892.638 663.087 892.908 663.317 893.088 663.61C893.275 663.897 893.368 664.22 893.368 664.58C893.368 664.967 893.265 665.307 893.058 665.6C892.851 665.887 892.568 666.1 892.208 666.24C892.621 666.367 892.948 666.59 893.188 666.91C893.435 667.223 893.558 667.603 893.558 668.05C893.558 668.483 893.451 668.863 893.238 669.19C893.025 669.51 892.721 669.76 892.328 669.94C891.941 670.113 891.495 670.2 890.988 670.2C890.481 670.2 890.035 670.113 889.648 669.94C889.268 669.76 888.971 669.51 888.758 669.19C888.545 668.863 888.438 668.483 888.438 668.05C888.438 667.603 888.558 667.22 888.798 666.9C889.038 666.58 889.365 666.36 889.778 666.24ZM892.488 664.69C892.488 664.283 892.355 663.97 892.088 663.75C891.821 663.53 891.455 663.42 890.988 663.42C890.528 663.42 890.165 663.53 889.898 663.75C889.631 663.97 889.498 664.287 889.498 664.7C889.498 665.073 889.635 665.373 889.908 665.6C890.188 665.827 890.548 665.94 890.988 665.94C891.435 665.94 891.795 665.827 892.068 665.6C892.348 665.367 892.488 665.063 892.488 664.69ZM890.988 666.64C890.495 666.64 890.091 666.757 889.778 666.99C889.465 667.217 889.308 667.56 889.308 668.02C889.308 668.447 889.458 668.79 889.758 669.05C890.065 669.31 890.475 669.44 890.988 669.44C891.501 669.44 891.908 669.31 892.208 669.05C892.508 668.79 892.658 668.447 892.658 668.02C892.658 667.573 892.505 667.233 892.198 667C891.891 666.76 891.488 666.64 890.988 666.64ZM897.976 670L895.826 667.58V670H894.916V662.6H895.826V666.95L897.936 664.52H899.206L896.626 667.25L899.216 670H897.976Z" fill="#A4A8AB"/>
<path d="M874.217 627.27C875.064 626.59 875.727 626.033 876.207 625.6C876.687 625.16 877.09 624.703 877.417 624.23C877.75 623.75 877.917 623.28 877.917 622.82C877.917 622.387 877.81 622.047 877.597 621.8C877.39 621.547 877.054 621.42 876.587 621.42C876.134 621.42 875.78 621.563 875.527 621.85C875.28 622.13 875.147 622.507 875.127 622.98H874.247C874.274 622.233 874.5 621.657 874.927 621.25C875.354 620.843 875.904 620.64 876.577 620.64C877.264 620.64 877.807 620.83 878.207 621.21C878.614 621.59 878.817 622.113 878.817 622.78C878.817 623.333 878.65 623.873 878.317 624.4C877.99 624.92 877.617 625.38 877.197 625.78C876.777 626.173 876.24 626.633 875.587 627.16H879.027V627.92H874.217V627.27ZM880.079 624.31C880.079 623.163 880.266 622.27 880.639 621.63C881.012 620.983 881.666 620.66 882.599 620.66C883.526 620.66 884.176 620.983 884.549 621.63C884.922 622.27 885.109 623.163 885.109 624.31C885.109 625.477 884.922 626.383 884.549 627.03C884.176 627.677 883.526 628 882.599 628C881.666 628 881.012 627.677 880.639 627.03C880.266 626.383 880.079 625.477 880.079 624.31ZM884.209 624.31C884.209 623.73 884.169 623.24 884.089 622.84C884.016 622.433 883.859 622.107 883.619 621.86C883.386 621.613 883.046 621.49 882.599 621.49C882.146 621.49 881.799 621.613 881.559 621.86C881.326 622.107 881.169 622.433 881.089 622.84C881.016 623.24 880.979 623.73 880.979 624.31C880.979 624.91 881.016 625.413 881.089 625.82C881.169 626.227 881.326 626.553 881.559 626.8C881.799 627.047 882.146 627.17 882.599 627.17C883.046 627.17 883.386 627.047 883.619 626.8C883.859 626.553 884.016 626.227 884.089 625.82C884.169 625.413 884.209 624.91 884.209 624.31ZM886.798 628.06C886.625 628.06 886.478 628 886.358 627.88C886.238 627.76 886.178 627.613 886.178 627.44C886.178 627.267 886.238 627.12 886.358 627C886.478 626.88 886.625 626.82 886.798 626.82C886.965 626.82 887.105 626.88 887.218 627C887.338 627.12 887.398 627.267 887.398 627.44C887.398 627.613 887.338 627.76 887.218 627.88C887.105 628 886.965 628.06 886.798 628.06ZM889.778 624.24C889.405 624.093 889.118 623.88 888.918 623.6C888.718 623.32 888.618 622.98 888.618 622.58C888.618 622.22 888.708 621.897 888.888 621.61C889.068 621.317 889.335 621.087 889.688 620.92C890.048 620.747 890.481 620.66 890.988 620.66C891.495 620.66 891.925 620.747 892.278 620.92C892.638 621.087 892.908 621.317 893.088 621.61C893.275 621.897 893.368 622.22 893.368 622.58C893.368 622.967 893.265 623.307 893.058 623.6C892.851 623.887 892.568 624.1 892.208 624.24C892.621 624.367 892.948 624.59 893.188 624.91C893.435 625.223 893.558 625.603 893.558 626.05C893.558 626.483 893.451 626.863 893.238 627.19C893.025 627.51 892.721 627.76 892.328 627.94C891.941 628.113 891.495 628.2 890.988 628.2C890.481 628.2 890.035 628.113 889.648 627.94C889.268 627.76 888.971 627.51 888.758 627.19C888.545 626.863 888.438 626.483 888.438 626.05C888.438 625.603 888.558 625.22 888.798 624.9C889.038 624.58 889.365 624.36 889.778 624.24ZM892.488 622.69C892.488 622.283 892.355 621.97 892.088 621.75C891.821 621.53 891.455 621.42 890.988 621.42C890.528 621.42 890.165 621.53 889.898 621.75C889.631 621.97 889.498 622.287 889.498 622.7C889.498 623.073 889.635 623.373 889.908 623.6C890.188 623.827 890.548 623.94 890.988 623.94C891.435 623.94 891.795 623.827 892.068 623.6C892.348 623.367 892.488 623.063 892.488 622.69ZM890.988 624.64C890.495 624.64 890.091 624.757 889.778 624.99C889.465 625.217 889.308 625.56 889.308 626.02C889.308 626.447 889.458 626.79 889.758 627.05C890.065 627.31 890.475 627.44 890.988 627.44C891.501 627.44 891.908 627.31 892.208 627.05C892.508 626.79 892.658 626.447 892.658 626.02C892.658 625.573 892.505 625.233 892.198 625C891.891 624.76 891.488 624.64 890.988 624.64ZM897.976 628L895.826 625.58V628H894.916V620.6H895.826V624.95L897.936 622.52H899.206L896.626 625.25L899.216 628H897.976Z" fill="#A4A8AB"/>
<path d="M874.217 587.27C875.064 586.59 875.727 586.033 876.207 585.6C876.687 585.16 877.09 584.703 877.417 584.23C877.75 583.75 877.917 583.28 877.917 582.82C877.917 582.387 877.81 582.047 877.597 581.8C877.39 581.547 877.054 581.42 876.587 581.42C876.134 581.42 875.78 581.563 875.527 581.85C875.28 582.13 875.147 582.507 875.127 582.98H874.247C874.274 582.233 874.5 581.657 874.927 581.25C875.354 580.843 875.904 580.64 876.577 580.64C877.264 580.64 877.807 580.83 878.207 581.21C878.614 581.59 878.817 582.113 878.817 582.78C878.817 583.333 878.65 583.873 878.317 584.4C877.99 584.92 877.617 585.38 877.197 585.78C876.777 586.173 876.24 586.633 875.587 587.16H879.027V587.92H874.217V587.27ZM880.079 584.31C880.079 583.163 880.266 582.27 880.639 581.63C881.012 580.983 881.666 580.66 882.599 580.66C883.526 580.66 884.176 580.983 884.549 581.63C884.922 582.27 885.109 583.163 885.109 584.31C885.109 585.477 884.922 586.383 884.549 587.03C884.176 587.677 883.526 588 882.599 588C881.666 588 881.012 587.677 880.639 587.03C880.266 586.383 880.079 585.477 880.079 584.31ZM884.209 584.31C884.209 583.73 884.169 583.24 884.089 582.84C884.016 582.433 883.859 582.107 883.619 581.86C883.386 581.613 883.046 581.49 882.599 581.49C882.146 581.49 881.799 581.613 881.559 581.86C881.326 582.107 881.169 582.433 881.089 582.84C881.016 583.24 880.979 583.73 880.979 584.31C880.979 584.91 881.016 585.413 881.089 585.82C881.169 586.227 881.326 586.553 881.559 586.8C881.799 587.047 882.146 587.17 882.599 587.17C883.046 587.17 883.386 587.047 883.619 586.8C883.859 586.553 884.016 586.227 884.089 585.82C884.169 585.413 884.209 584.91 884.209 584.31ZM886.798 588.06C886.625 588.06 886.478 588 886.358 587.88C886.238 587.76 886.178 587.613 886.178 587.44C886.178 587.267 886.238 587.12 886.358 587C886.478 586.88 886.625 586.82 886.798 586.82C886.965 586.82 887.105 586.88 887.218 587C887.338 587.12 887.398 587.267 887.398 587.44C887.398 587.613 887.338 587.76 887.218 587.88C887.105 588 886.965 588.06 886.798 588.06ZM889.778 584.24C889.405 584.093 889.118 583.88 888.918 583.6C888.718 583.32 888.618 582.98 888.618 582.58C888.618 582.22 888.708 581.897 888.888 581.61C889.068 581.317 889.335 581.087 889.688 580.92C890.048 580.747 890.481 580.66 890.988 580.66C891.495 580.66 891.925 580.747 892.278 580.92C892.638 581.087 892.908 581.317 893.088 581.61C893.275 581.897 893.368 582.22 893.368 582.58C893.368 582.967 893.265 583.307 893.058 583.6C892.851 583.887 892.568 584.1 892.208 584.24C892.621 584.367 892.948 584.59 893.188 584.91C893.435 585.223 893.558 585.603 893.558 586.05C893.558 586.483 893.451 586.863 893.238 587.19C893.025 587.51 892.721 587.76 892.328 587.94C891.941 588.113 891.495 588.2 890.988 588.2C890.481 588.2 890.035 588.113 889.648 587.94C889.268 587.76 888.971 587.51 888.758 587.19C888.545 586.863 888.438 586.483 888.438 586.05C888.438 585.603 888.558 585.22 888.798 584.9C889.038 584.58 889.365 584.36 889.778 584.24ZM892.488 582.69C892.488 582.283 892.355 581.97 892.088 581.75C891.821 581.53 891.455 581.42 890.988 581.42C890.528 581.42 890.165 581.53 889.898 581.75C889.631 581.97 889.498 582.287 889.498 582.7C889.498 583.073 889.635 583.373 889.908 583.6C890.188 583.827 890.548 583.94 890.988 583.94C891.435 583.94 891.795 583.827 892.068 583.6C892.348 583.367 892.488 583.063 892.488 582.69ZM890.988 584.64C890.495 584.64 890.091 584.757 889.778 584.99C889.465 585.217 889.308 585.56 889.308 586.02C889.308 586.447 889.458 586.79 889.758 587.05C890.065 587.31 890.475 587.44 890.988 587.44C891.501 587.44 891.908 587.31 892.208 587.05C892.508 586.79 892.658 586.447 892.658 586.02C892.658 585.573 892.505 585.233 892.198 585C891.891 584.76 891.488 584.64 890.988 584.64ZM897.976 588L895.826 585.58V588H894.916V580.6H895.826V584.95L897.936 582.52H899.206L896.626 585.25L899.216 588H897.976Z" fill="#A4A8AB"/>
<path d="M874.217 546.27C875.064 545.59 875.727 545.033 876.207 544.6C876.687 544.16 877.09 543.703 877.417 543.23C877.75 542.75 877.917 542.28 877.917 541.82C877.917 541.387 877.81 541.047 877.597 540.8C877.39 540.547 877.054 540.42 876.587 540.42C876.134 540.42 875.78 540.563 875.527 540.85C875.28 541.13 875.147 541.507 875.127 541.98H874.247C874.274 541.233 874.5 540.657 874.927 540.25C875.354 539.843 875.904 539.64 876.577 539.64C877.264 539.64 877.807 539.83 878.207 540.21C878.614 540.59 878.817 541.113 878.817 541.78C878.817 542.333 878.65 542.873 878.317 543.4C877.99 543.92 877.617 544.38 877.197 544.78C876.777 545.173 876.24 545.633 875.587 546.16H879.027V546.92H874.217V546.27ZM880.079 543.31C880.079 542.163 880.266 541.27 880.639 540.63C881.012 539.983 881.666 539.66 882.599 539.66C883.526 539.66 884.176 539.983 884.549 540.63C884.922 541.27 885.109 542.163 885.109 543.31C885.109 544.477 884.922 545.383 884.549 546.03C884.176 546.677 883.526 547 882.599 547C881.666 547 881.012 546.677 880.639 546.03C880.266 545.383 880.079 544.477 880.079 543.31ZM884.209 543.31C884.209 542.73 884.169 542.24 884.089 541.84C884.016 541.433 883.859 541.107 883.619 540.86C883.386 540.613 883.046 540.49 882.599 540.49C882.146 540.49 881.799 540.613 881.559 540.86C881.326 541.107 881.169 541.433 881.089 541.84C881.016 542.24 880.979 542.73 880.979 543.31C880.979 543.91 881.016 544.413 881.089 544.82C881.169 545.227 881.326 545.553 881.559 545.8C881.799 546.047 882.146 546.17 882.599 546.17C883.046 546.17 883.386 546.047 883.619 545.8C883.859 545.553 884.016 545.227 884.089 544.82C884.169 544.413 884.209 543.91 884.209 543.31ZM886.798 547.06C886.625 547.06 886.478 547 886.358 546.88C886.238 546.76 886.178 546.613 886.178 546.44C886.178 546.267 886.238 546.12 886.358 546C886.478 545.88 886.625 545.82 886.798 545.82C886.965 545.82 887.105 545.88 887.218 546C887.338 546.12 887.398 546.267 887.398 546.44C887.398 546.613 887.338 546.76 887.218 546.88C887.105 547 886.965 547.06 886.798 547.06ZM889.778 543.24C889.405 543.093 889.118 542.88 888.918 542.6C888.718 542.32 888.618 541.98 888.618 541.58C888.618 541.22 888.708 540.897 888.888 540.61C889.068 540.317 889.335 540.087 889.688 539.92C890.048 539.747 890.481 539.66 890.988 539.66C891.495 539.66 891.925 539.747 892.278 539.92C892.638 540.087 892.908 540.317 893.088 540.61C893.275 540.897 893.368 541.22 893.368 541.58C893.368 541.967 893.265 542.307 893.058 542.6C892.851 542.887 892.568 543.1 892.208 543.24C892.621 543.367 892.948 543.59 893.188 543.91C893.435 544.223 893.558 544.603 893.558 545.05C893.558 545.483 893.451 545.863 893.238 546.19C893.025 546.51 892.721 546.76 892.328 546.94C891.941 547.113 891.495 547.2 890.988 547.2C890.481 547.2 890.035 547.113 889.648 546.94C889.268 546.76 888.971 546.51 888.758 546.19C888.545 545.863 888.438 545.483 888.438 545.05C888.438 544.603 888.558 544.22 888.798 543.9C889.038 543.58 889.365 543.36 889.778 543.24ZM892.488 541.69C892.488 541.283 892.355 540.97 892.088 540.75C891.821 540.53 891.455 540.42 890.988 540.42C890.528 540.42 890.165 540.53 889.898 540.75C889.631 540.97 889.498 541.287 889.498 541.7C889.498 542.073 889.635 542.373 889.908 542.6C890.188 542.827 890.548 542.94 890.988 542.94C891.435 542.94 891.795 542.827 892.068 542.6C892.348 542.367 892.488 542.063 892.488 541.69ZM890.988 543.64C890.495 543.64 890.091 543.757 889.778 543.99C889.465 544.217 889.308 544.56 889.308 545.02C889.308 545.447 889.458 545.79 889.758 546.05C890.065 546.31 890.475 546.44 890.988 546.44C891.501 546.44 891.908 546.31 892.208 546.05C892.508 545.79 892.658 545.447 892.658 545.02C892.658 544.573 892.505 544.233 892.198 544C891.891 543.76 891.488 543.64 890.988 543.64ZM897.976 547L895.826 544.58V547H894.916V539.6H895.826V543.95L897.936 541.52H899.206L896.626 544.25L899.216 547H897.976Z" fill="#A4A8AB"/>
<path d="M874.217 506.27C875.064 505.59 875.727 505.033 876.207 504.6C876.687 504.16 877.09 503.703 877.417 503.23C877.75 502.75 877.917 502.28 877.917 501.82C877.917 501.387 877.81 501.047 877.597 500.8C877.39 500.547 877.054 500.42 876.587 500.42C876.134 500.42 875.78 500.563 875.527 500.85C875.28 501.13 875.147 501.507 875.127 501.98H874.247C874.274 501.233 874.5 500.657 874.927 500.25C875.354 499.843 875.904 499.64 876.577 499.64C877.264 499.64 877.807 499.83 878.207 500.21C878.614 500.59 878.817 501.113 878.817 501.78C878.817 502.333 878.65 502.873 878.317 503.4C877.99 503.92 877.617 504.38 877.197 504.78C876.777 505.173 876.24 505.633 875.587 506.16H879.027V506.92H874.217V506.27ZM880.079 503.31C880.079 502.163 880.266 501.27 880.639 500.63C881.012 499.983 881.666 499.66 882.599 499.66C883.526 499.66 884.176 499.983 884.549 500.63C884.922 501.27 885.109 502.163 885.109 503.31C885.109 504.477 884.922 505.383 884.549 506.03C884.176 506.677 883.526 507 882.599 507C881.666 507 881.012 506.677 880.639 506.03C880.266 505.383 880.079 504.477 880.079 503.31ZM884.209 503.31C884.209 502.73 884.169 502.24 884.089 501.84C884.016 501.433 883.859 501.107 883.619 500.86C883.386 500.613 883.046 500.49 882.599 500.49C882.146 500.49 881.799 500.613 881.559 500.86C881.326 501.107 881.169 501.433 881.089 501.84C881.016 502.24 880.979 502.73 880.979 503.31C880.979 503.91 881.016 504.413 881.089 504.82C881.169 505.227 881.326 505.553 881.559 505.8C881.799 506.047 882.146 506.17 882.599 506.17C883.046 506.17 883.386 506.047 883.619 505.8C883.859 505.553 884.016 505.227 884.089 504.82C884.169 504.413 884.209 503.91 884.209 503.31ZM886.798 507.06C886.625 507.06 886.478 507 886.358 506.88C886.238 506.76 886.178 506.613 886.178 506.44C886.178 506.267 886.238 506.12 886.358 506C886.478 505.88 886.625 505.82 886.798 505.82C886.965 505.82 887.105 505.88 887.218 506C887.338 506.12 887.398 506.267 887.398 506.44C887.398 506.613 887.338 506.76 887.218 506.88C887.105 507 886.965 507.06 886.798 507.06ZM889.778 503.24C889.405 503.093 889.118 502.88 888.918 502.6C888.718 502.32 888.618 501.98 888.618 501.58C888.618 501.22 888.708 500.897 888.888 500.61C889.068 500.317 889.335 500.087 889.688 499.92C890.048 499.747 890.481 499.66 890.988 499.66C891.495 499.66 891.925 499.747 892.278 499.92C892.638 500.087 892.908 500.317 893.088 500.61C893.275 500.897 893.368 501.22 893.368 501.58C893.368 501.967 893.265 502.307 893.058 502.6C892.851 502.887 892.568 503.1 892.208 503.24C892.621 503.367 892.948 503.59 893.188 503.91C893.435 504.223 893.558 504.603 893.558 505.05C893.558 505.483 893.451 505.863 893.238 506.19C893.025 506.51 892.721 506.76 892.328 506.94C891.941 507.113 891.495 507.2 890.988 507.2C890.481 507.2 890.035 507.113 889.648 506.94C889.268 506.76 888.971 506.51 888.758 506.19C888.545 505.863 888.438 505.483 888.438 505.05C888.438 504.603 888.558 504.22 888.798 503.9C889.038 503.58 889.365 503.36 889.778 503.24ZM892.488 501.69C892.488 501.283 892.355 500.97 892.088 500.75C891.821 500.53 891.455 500.42 890.988 500.42C890.528 500.42 890.165 500.53 889.898 500.75C889.631 500.97 889.498 501.287 889.498 501.7C889.498 502.073 889.635 502.373 889.908 502.6C890.188 502.827 890.548 502.94 890.988 502.94C891.435 502.94 891.795 502.827 892.068 502.6C892.348 502.367 892.488 502.063 892.488 501.69ZM890.988 503.64C890.495 503.64 890.091 503.757 889.778 503.99C889.465 504.217 889.308 504.56 889.308 505.02C889.308 505.447 889.458 505.79 889.758 506.05C890.065 506.31 890.475 506.44 890.988 506.44C891.501 506.44 891.908 506.31 892.208 506.05C892.508 505.79 892.658 505.447 892.658 505.02C892.658 504.573 892.505 504.233 892.198 504C891.891 503.76 891.488 503.64 890.988 503.64ZM897.976 507L895.826 504.58V507H894.916V499.6H895.826V503.95L897.936 501.52H899.206L896.626 504.25L899.216 507H897.976Z" fill="#A4A8AB"/>
<path d="M874.217 464.27C875.064 463.59 875.727 463.033 876.207 462.6C876.687 462.16 877.09 461.703 877.417 461.23C877.75 460.75 877.917 460.28 877.917 459.82C877.917 459.387 877.81 459.047 877.597 458.8C877.39 458.547 877.054 458.42 876.587 458.42C876.134 458.42 875.78 458.563 875.527 458.85C875.28 459.13 875.147 459.507 875.127 459.98H874.247C874.274 459.233 874.5 458.657 874.927 458.25C875.354 457.843 875.904 457.64 876.577 457.64C877.264 457.64 877.807 457.83 878.207 458.21C878.614 458.59 878.817 459.113 878.817 459.78C878.817 460.333 878.65 460.873 878.317 461.4C877.99 461.92 877.617 462.38 877.197 462.78C876.777 463.173 876.24 463.633 875.587 464.16H879.027V464.92H874.217V464.27ZM880.079 461.31C880.079 460.163 880.266 459.27 880.639 458.63C881.012 457.983 881.666 457.66 882.599 457.66C883.526 457.66 884.176 457.983 884.549 458.63C884.922 459.27 885.109 460.163 885.109 461.31C885.109 462.477 884.922 463.383 884.549 464.03C884.176 464.677 883.526 465 882.599 465C881.666 465 881.012 464.677 880.639 464.03C880.266 463.383 880.079 462.477 880.079 461.31ZM884.209 461.31C884.209 460.73 884.169 460.24 884.089 459.84C884.016 459.433 883.859 459.107 883.619 458.86C883.386 458.613 883.046 458.49 882.599 458.49C882.146 458.49 881.799 458.613 881.559 458.86C881.326 459.107 881.169 459.433 881.089 459.84C881.016 460.24 880.979 460.73 880.979 461.31C880.979 461.91 881.016 462.413 881.089 462.82C881.169 463.227 881.326 463.553 881.559 463.8C881.799 464.047 882.146 464.17 882.599 464.17C883.046 464.17 883.386 464.047 883.619 463.8C883.859 463.553 884.016 463.227 884.089 462.82C884.169 462.413 884.209 461.91 884.209 461.31ZM886.798 465.06C886.625 465.06 886.478 465 886.358 464.88C886.238 464.76 886.178 464.613 886.178 464.44C886.178 464.267 886.238 464.12 886.358 464C886.478 463.88 886.625 463.82 886.798 463.82C886.965 463.82 887.105 463.88 887.218 464C887.338 464.12 887.398 464.267 887.398 464.44C887.398 464.613 887.338 464.76 887.218 464.88C887.105 465 886.965 465.06 886.798 465.06ZM889.778 461.24C889.405 461.093 889.118 460.88 888.918 460.6C888.718 460.32 888.618 459.98 888.618 459.58C888.618 459.22 888.708 458.897 888.888 458.61C889.068 458.317 889.335 458.087 889.688 457.92C890.048 457.747 890.481 457.66 890.988 457.66C891.495 457.66 891.925 457.747 892.278 457.92C892.638 458.087 892.908 458.317 893.088 458.61C893.275 458.897 893.368 459.22 893.368 459.58C893.368 459.967 893.265 460.307 893.058 460.6C892.851 460.887 892.568 461.1 892.208 461.24C892.621 461.367 892.948 461.59 893.188 461.91C893.435 462.223 893.558 462.603 893.558 463.05C893.558 463.483 893.451 463.863 893.238 464.19C893.025 464.51 892.721 464.76 892.328 464.94C891.941 465.113 891.495 465.2 890.988 465.2C890.481 465.2 890.035 465.113 889.648 464.94C889.268 464.76 888.971 464.51 888.758 464.19C888.545 463.863 888.438 463.483 888.438 463.05C888.438 462.603 888.558 462.22 888.798 461.9C889.038 461.58 889.365 461.36 889.778 461.24ZM892.488 459.69C892.488 459.283 892.355 458.97 892.088 458.75C891.821 458.53 891.455 458.42 890.988 458.42C890.528 458.42 890.165 458.53 889.898 458.75C889.631 458.97 889.498 459.287 889.498 459.7C889.498 460.073 889.635 460.373 889.908 460.6C890.188 460.827 890.548 460.94 890.988 460.94C891.435 460.94 891.795 460.827 892.068 460.6C892.348 460.367 892.488 460.063 892.488 459.69ZM890.988 461.64C890.495 461.64 890.091 461.757 889.778 461.99C889.465 462.217 889.308 462.56 889.308 463.02C889.308 463.447 889.458 463.79 889.758 464.05C890.065 464.31 890.475 464.44 890.988 464.44C891.501 464.44 891.908 464.31 892.208 464.05C892.508 463.79 892.658 463.447 892.658 463.02C892.658 462.573 892.505 462.233 892.198 462C891.891 461.76 891.488 461.64 890.988 461.64ZM897.976 465L895.826 462.58V465H894.916V457.6H895.826V461.95L897.936 459.52H899.206L896.626 462.25L899.216 465H897.976Z" fill="#A4A8AB"/>
<path d="M874.217 424.27C875.064 423.59 875.727 423.033 876.207 422.6C876.687 422.16 877.09 421.703 877.417 421.23C877.75 420.75 877.917 420.28 877.917 419.82C877.917 419.387 877.81 419.047 877.597 418.8C877.39 418.547 877.054 418.42 876.587 418.42C876.134 418.42 875.78 418.563 875.527 418.85C875.28 419.13 875.147 419.507 875.127 419.98H874.247C874.274 419.233 874.5 418.657 874.927 418.25C875.354 417.843 875.904 417.64 876.577 417.64C877.264 417.64 877.807 417.83 878.207 418.21C878.614 418.59 878.817 419.113 878.817 419.78C878.817 420.333 878.65 420.873 878.317 421.4C877.99 421.92 877.617 422.38 877.197 422.78C876.777 423.173 876.24 423.633 875.587 424.16H879.027V424.92H874.217V424.27ZM880.079 421.31C880.079 420.163 880.266 419.27 880.639 418.63C881.012 417.983 881.666 417.66 882.599 417.66C883.526 417.66 884.176 417.983 884.549 418.63C884.922 419.27 885.109 420.163 885.109 421.31C885.109 422.477 884.922 423.383 884.549 424.03C884.176 424.677 883.526 425 882.599 425C881.666 425 881.012 424.677 880.639 424.03C880.266 423.383 880.079 422.477 880.079 421.31ZM884.209 421.31C884.209 420.73 884.169 420.24 884.089 419.84C884.016 419.433 883.859 419.107 883.619 418.86C883.386 418.613 883.046 418.49 882.599 418.49C882.146 418.49 881.799 418.613 881.559 418.86C881.326 419.107 881.169 419.433 881.089 419.84C881.016 420.24 880.979 420.73 880.979 421.31C880.979 421.91 881.016 422.413 881.089 422.82C881.169 423.227 881.326 423.553 881.559 423.8C881.799 424.047 882.146 424.17 882.599 424.17C883.046 424.17 883.386 424.047 883.619 423.8C883.859 423.553 884.016 423.227 884.089 422.82C884.169 422.413 884.209 421.91 884.209 421.31ZM886.798 425.06C886.625 425.06 886.478 425 886.358 424.88C886.238 424.76 886.178 424.613 886.178 424.44C886.178 424.267 886.238 424.12 886.358 424C886.478 423.88 886.625 423.82 886.798 423.82C886.965 423.82 887.105 423.88 887.218 424C887.338 424.12 887.398 424.267 887.398 424.44C887.398 424.613 887.338 424.76 887.218 424.88C887.105 425 886.965 425.06 886.798 425.06ZM889.778 421.24C889.405 421.093 889.118 420.88 888.918 420.6C888.718 420.32 888.618 419.98 888.618 419.58C888.618 419.22 888.708 418.897 888.888 418.61C889.068 418.317 889.335 418.087 889.688 417.92C890.048 417.747 890.481 417.66 890.988 417.66C891.495 417.66 891.925 417.747 892.278 417.92C892.638 418.087 892.908 418.317 893.088 418.61C893.275 418.897 893.368 419.22 893.368 419.58C893.368 419.967 893.265 420.307 893.058 420.6C892.851 420.887 892.568 421.1 892.208 421.24C892.621 421.367 892.948 421.59 893.188 421.91C893.435 422.223 893.558 422.603 893.558 423.05C893.558 423.483 893.451 423.863 893.238 424.19C893.025 424.51 892.721 424.76 892.328 424.94C891.941 425.113 891.495 425.2 890.988 425.2C890.481 425.2 890.035 425.113 889.648 424.94C889.268 424.76 888.971 424.51 888.758 424.19C888.545 423.863 888.438 423.483 888.438 423.05C888.438 422.603 888.558 422.22 888.798 421.9C889.038 421.58 889.365 421.36 889.778 421.24ZM892.488 419.69C892.488 419.283 892.355 418.97 892.088 418.75C891.821 418.53 891.455 418.42 890.988 418.42C890.528 418.42 890.165 418.53 889.898 418.75C889.631 418.97 889.498 419.287 889.498 419.7C889.498 420.073 889.635 420.373 889.908 420.6C890.188 420.827 890.548 420.94 890.988 420.94C891.435 420.94 891.795 420.827 892.068 420.6C892.348 420.367 892.488 420.063 892.488 419.69ZM890.988 421.64C890.495 421.64 890.091 421.757 889.778 421.99C889.465 422.217 889.308 422.56 889.308 423.02C889.308 423.447 889.458 423.79 889.758 424.05C890.065 424.31 890.475 424.44 890.988 424.44C891.501 424.44 891.908 424.31 892.208 424.05C892.508 423.79 892.658 423.447 892.658 423.02C892.658 422.573 892.505 422.233 892.198 422C891.891 421.76 891.488 421.64 890.988 421.64ZM897.976 425L895.826 422.58V425H894.916V417.6H895.826V421.95L897.936 419.52H899.206L896.626 422.25L899.216 425H897.976Z" fill="#A4A8AB"/>
<path d="M874.217 382.27C875.064 381.59 875.727 381.033 876.207 380.6C876.687 380.16 877.09 379.703 877.417 379.23C877.75 378.75 877.917 378.28 877.917 377.82C877.917 377.387 877.81 377.047 877.597 376.8C877.39 376.547 877.054 376.42 876.587 376.42C876.134 376.42 875.78 376.563 875.527 376.85C875.28 377.13 875.147 377.507 875.127 377.98H874.247C874.274 377.233 874.5 376.657 874.927 376.25C875.354 375.843 875.904 375.64 876.577 375.64C877.264 375.64 877.807 375.83 878.207 376.21C878.614 376.59 878.817 377.113 878.817 377.78C878.817 378.333 878.65 378.873 878.317 379.4C877.99 379.92 877.617 380.38 877.197 380.78C876.777 381.173 876.24 381.633 875.587 382.16H879.027V382.92H874.217V382.27ZM880.079 379.31C880.079 378.163 880.266 377.27 880.639 376.63C881.012 375.983 881.666 375.66 882.599 375.66C883.526 375.66 884.176 375.983 884.549 376.63C884.922 377.27 885.109 378.163 885.109 379.31C885.109 380.477 884.922 381.383 884.549 382.03C884.176 382.677 883.526 383 882.599 383C881.666 383 881.012 382.677 880.639 382.03C880.266 381.383 880.079 380.477 880.079 379.31ZM884.209 379.31C884.209 378.73 884.169 378.24 884.089 377.84C884.016 377.433 883.859 377.107 883.619 376.86C883.386 376.613 883.046 376.49 882.599 376.49C882.146 376.49 881.799 376.613 881.559 376.86C881.326 377.107 881.169 377.433 881.089 377.84C881.016 378.24 880.979 378.73 880.979 379.31C880.979 379.91 881.016 380.413 881.089 380.82C881.169 381.227 881.326 381.553 881.559 381.8C881.799 382.047 882.146 382.17 882.599 382.17C883.046 382.17 883.386 382.047 883.619 381.8C883.859 381.553 884.016 381.227 884.089 380.82C884.169 380.413 884.209 379.91 884.209 379.31ZM886.798 383.06C886.625 383.06 886.478 383 886.358 382.88C886.238 382.76 886.178 382.613 886.178 382.44C886.178 382.267 886.238 382.12 886.358 382C886.478 381.88 886.625 381.82 886.798 381.82C886.965 381.82 887.105 381.88 887.218 382C887.338 382.12 887.398 382.267 887.398 382.44C887.398 382.613 887.338 382.76 887.218 382.88C887.105 383 886.965 383.06 886.798 383.06ZM889.778 379.24C889.405 379.093 889.118 378.88 888.918 378.6C888.718 378.32 888.618 377.98 888.618 377.58C888.618 377.22 888.708 376.897 888.888 376.61C889.068 376.317 889.335 376.087 889.688 375.92C890.048 375.747 890.481 375.66 890.988 375.66C891.495 375.66 891.925 375.747 892.278 375.92C892.638 376.087 892.908 376.317 893.088 376.61C893.275 376.897 893.368 377.22 893.368 377.58C893.368 377.967 893.265 378.307 893.058 378.6C892.851 378.887 892.568 379.1 892.208 379.24C892.621 379.367 892.948 379.59 893.188 379.91C893.435 380.223 893.558 380.603 893.558 381.05C893.558 381.483 893.451 381.863 893.238 382.19C893.025 382.51 892.721 382.76 892.328 382.94C891.941 383.113 891.495 383.2 890.988 383.2C890.481 383.2 890.035 383.113 889.648 382.94C889.268 382.76 888.971 382.51 888.758 382.19C888.545 381.863 888.438 381.483 888.438 381.05C888.438 380.603 888.558 380.22 888.798 379.9C889.038 379.58 889.365 379.36 889.778 379.24ZM892.488 377.69C892.488 377.283 892.355 376.97 892.088 376.75C891.821 376.53 891.455 376.42 890.988 376.42C890.528 376.42 890.165 376.53 889.898 376.75C889.631 376.97 889.498 377.287 889.498 377.7C889.498 378.073 889.635 378.373 889.908 378.6C890.188 378.827 890.548 378.94 890.988 378.94C891.435 378.94 891.795 378.827 892.068 378.6C892.348 378.367 892.488 378.063 892.488 377.69ZM890.988 379.64C890.495 379.64 890.091 379.757 889.778 379.99C889.465 380.217 889.308 380.56 889.308 381.02C889.308 381.447 889.458 381.79 889.758 382.05C890.065 382.31 890.475 382.44 890.988 382.44C891.501 382.44 891.908 382.31 892.208 382.05C892.508 381.79 892.658 381.447 892.658 381.02C892.658 380.573 892.505 380.233 892.198 380C891.891 379.76 891.488 379.64 890.988 379.64ZM897.976 383L895.826 380.58V383H894.916V375.6H895.826V379.95L897.936 377.52H899.206L896.626 380.25L899.216 383H897.976Z" fill="#A4A8AB"/>
<path d="M874.217 342.27C875.064 341.59 875.727 341.033 876.207 340.6C876.687 340.16 877.09 339.703 877.417 339.23C877.75 338.75 877.917 338.28 877.917 337.82C877.917 337.387 877.81 337.047 877.597 336.8C877.39 336.547 877.054 336.42 876.587 336.42C876.134 336.42 875.78 336.563 875.527 336.85C875.28 337.13 875.147 337.507 875.127 337.98H874.247C874.274 337.233 874.5 336.657 874.927 336.25C875.354 335.843 875.904 335.64 876.577 335.64C877.264 335.64 877.807 335.83 878.207 336.21C878.614 336.59 878.817 337.113 878.817 337.78C878.817 338.333 878.65 338.873 878.317 339.4C877.99 339.92 877.617 340.38 877.197 340.78C876.777 341.173 876.24 341.633 875.587 342.16H879.027V342.92H874.217V342.27ZM880.079 339.31C880.079 338.163 880.266 337.27 880.639 336.63C881.012 335.983 881.666 335.66 882.599 335.66C883.526 335.66 884.176 335.983 884.549 336.63C884.922 337.27 885.109 338.163 885.109 339.31C885.109 340.477 884.922 341.383 884.549 342.03C884.176 342.677 883.526 343 882.599 343C881.666 343 881.012 342.677 880.639 342.03C880.266 341.383 880.079 340.477 880.079 339.31ZM884.209 339.31C884.209 338.73 884.169 338.24 884.089 337.84C884.016 337.433 883.859 337.107 883.619 336.86C883.386 336.613 883.046 336.49 882.599 336.49C882.146 336.49 881.799 336.613 881.559 336.86C881.326 337.107 881.169 337.433 881.089 337.84C881.016 338.24 880.979 338.73 880.979 339.31C880.979 339.91 881.016 340.413 881.089 340.82C881.169 341.227 881.326 341.553 881.559 341.8C881.799 342.047 882.146 342.17 882.599 342.17C883.046 342.17 883.386 342.047 883.619 341.8C883.859 341.553 884.016 341.227 884.089 340.82C884.169 340.413 884.209 339.91 884.209 339.31ZM886.798 343.06C886.625 343.06 886.478 343 886.358 342.88C886.238 342.76 886.178 342.613 886.178 342.44C886.178 342.267 886.238 342.12 886.358 342C886.478 341.88 886.625 341.82 886.798 341.82C886.965 341.82 887.105 341.88 887.218 342C887.338 342.12 887.398 342.267 887.398 342.44C887.398 342.613 887.338 342.76 887.218 342.88C887.105 343 886.965 343.06 886.798 343.06ZM889.778 339.24C889.405 339.093 889.118 338.88 888.918 338.6C888.718 338.32 888.618 337.98 888.618 337.58C888.618 337.22 888.708 336.897 888.888 336.61C889.068 336.317 889.335 336.087 889.688 335.92C890.048 335.747 890.481 335.66 890.988 335.66C891.495 335.66 891.925 335.747 892.278 335.92C892.638 336.087 892.908 336.317 893.088 336.61C893.275 336.897 893.368 337.22 893.368 337.58C893.368 337.967 893.265 338.307 893.058 338.6C892.851 338.887 892.568 339.1 892.208 339.24C892.621 339.367 892.948 339.59 893.188 339.91C893.435 340.223 893.558 340.603 893.558 341.05C893.558 341.483 893.451 341.863 893.238 342.19C893.025 342.51 892.721 342.76 892.328 342.94C891.941 343.113 891.495 343.2 890.988 343.2C890.481 343.2 890.035 343.113 889.648 342.94C889.268 342.76 888.971 342.51 888.758 342.19C888.545 341.863 888.438 341.483 888.438 341.05C888.438 340.603 888.558 340.22 888.798 339.9C889.038 339.58 889.365 339.36 889.778 339.24ZM892.488 337.69C892.488 337.283 892.355 336.97 892.088 336.75C891.821 336.53 891.455 336.42 890.988 336.42C890.528 336.42 890.165 336.53 889.898 336.75C889.631 336.97 889.498 337.287 889.498 337.7C889.498 338.073 889.635 338.373 889.908 338.6C890.188 338.827 890.548 338.94 890.988 338.94C891.435 338.94 891.795 338.827 892.068 338.6C892.348 338.367 892.488 338.063 892.488 337.69ZM890.988 339.64C890.495 339.64 890.091 339.757 889.778 339.99C889.465 340.217 889.308 340.56 889.308 341.02C889.308 341.447 889.458 341.79 889.758 342.05C890.065 342.31 890.475 342.44 890.988 342.44C891.501 342.44 891.908 342.31 892.208 342.05C892.508 341.79 892.658 341.447 892.658 341.02C892.658 340.573 892.505 340.233 892.198 340C891.891 339.76 891.488 339.64 890.988 339.64ZM897.976 343L895.826 340.58V343H894.916V335.6H895.826V339.95L897.936 337.52H899.206L896.626 340.25L899.216 343H897.976Z" fill="#A4A8AB"/>
<path d="M874.217 298.27C875.064 297.59 875.727 297.033 876.207 296.6C876.687 296.16 877.09 295.703 877.417 295.23C877.75 294.75 877.917 294.28 877.917 293.82C877.917 293.387 877.81 293.047 877.597 292.8C877.39 292.547 877.054 292.42 876.587 292.42C876.134 292.42 875.78 292.563 875.527 292.85C875.28 293.13 875.147 293.507 875.127 293.98H874.247C874.274 293.233 874.5 292.657 874.927 292.25C875.354 291.843 875.904 291.64 876.577 291.64C877.264 291.64 877.807 291.83 878.207 292.21C878.614 292.59 878.817 293.113 878.817 293.78C878.817 294.333 878.65 294.873 878.317 295.4C877.99 295.92 877.617 296.38 877.197 296.78C876.777 297.173 876.24 297.633 875.587 298.16H879.027V298.92H874.217V298.27ZM880.079 295.31C880.079 294.163 880.266 293.27 880.639 292.63C881.012 291.983 881.666 291.66 882.599 291.66C883.526 291.66 884.176 291.983 884.549 292.63C884.922 293.27 885.109 294.163 885.109 295.31C885.109 296.477 884.922 297.383 884.549 298.03C884.176 298.677 883.526 299 882.599 299C881.666 299 881.012 298.677 880.639 298.03C880.266 297.383 880.079 296.477 880.079 295.31ZM884.209 295.31C884.209 294.73 884.169 294.24 884.089 293.84C884.016 293.433 883.859 293.107 883.619 292.86C883.386 292.613 883.046 292.49 882.599 292.49C882.146 292.49 881.799 292.613 881.559 292.86C881.326 293.107 881.169 293.433 881.089 293.84C881.016 294.24 880.979 294.73 880.979 295.31C880.979 295.91 881.016 296.413 881.089 296.82C881.169 297.227 881.326 297.553 881.559 297.8C881.799 298.047 882.146 298.17 882.599 298.17C883.046 298.17 883.386 298.047 883.619 297.8C883.859 297.553 884.016 297.227 884.089 296.82C884.169 296.413 884.209 295.91 884.209 295.31ZM886.798 299.06C886.625 299.06 886.478 299 886.358 298.88C886.238 298.76 886.178 298.613 886.178 298.44C886.178 298.267 886.238 298.12 886.358 298C886.478 297.88 886.625 297.82 886.798 297.82C886.965 297.82 887.105 297.88 887.218 298C887.338 298.12 887.398 298.267 887.398 298.44C887.398 298.613 887.338 298.76 887.218 298.88C887.105 299 886.965 299.06 886.798 299.06ZM889.778 295.24C889.405 295.093 889.118 294.88 888.918 294.6C888.718 294.32 888.618 293.98 888.618 293.58C888.618 293.22 888.708 292.897 888.888 292.61C889.068 292.317 889.335 292.087 889.688 291.92C890.048 291.747 890.481 291.66 890.988 291.66C891.495 291.66 891.925 291.747 892.278 291.92C892.638 292.087 892.908 292.317 893.088 292.61C893.275 292.897 893.368 293.22 893.368 293.58C893.368 293.967 893.265 294.307 893.058 294.6C892.851 294.887 892.568 295.1 892.208 295.24C892.621 295.367 892.948 295.59 893.188 295.91C893.435 296.223 893.558 296.603 893.558 297.05C893.558 297.483 893.451 297.863 893.238 298.19C893.025 298.51 892.721 298.76 892.328 298.94C891.941 299.113 891.495 299.2 890.988 299.2C890.481 299.2 890.035 299.113 889.648 298.94C889.268 298.76 888.971 298.51 888.758 298.19C888.545 297.863 888.438 297.483 888.438 297.05C888.438 296.603 888.558 296.22 888.798 295.9C889.038 295.58 889.365 295.36 889.778 295.24ZM892.488 293.69C892.488 293.283 892.355 292.97 892.088 292.75C891.821 292.53 891.455 292.42 890.988 292.42C890.528 292.42 890.165 292.53 889.898 292.75C889.631 292.97 889.498 293.287 889.498 293.7C889.498 294.073 889.635 294.373 889.908 294.6C890.188 294.827 890.548 294.94 890.988 294.94C891.435 294.94 891.795 294.827 892.068 294.6C892.348 294.367 892.488 294.063 892.488 293.69ZM890.988 295.64C890.495 295.64 890.091 295.757 889.778 295.99C889.465 296.217 889.308 296.56 889.308 297.02C889.308 297.447 889.458 297.79 889.758 298.05C890.065 298.31 890.475 298.44 890.988 298.44C891.501 298.44 891.908 298.31 892.208 298.05C892.508 297.79 892.658 297.447 892.658 297.02C892.658 296.573 892.505 296.233 892.198 296C891.891 295.76 891.488 295.64 890.988 295.64ZM897.976 299L895.826 296.58V299H894.916V291.6H895.826V295.95L897.936 293.52H899.206L896.626 296.25L899.216 299H897.976Z" fill="#A4A8AB"/>
<path d="M874.217 258.27C875.064 257.59 875.727 257.033 876.207 256.6C876.687 256.16 877.09 255.703 877.417 255.23C877.75 254.75 877.917 254.28 877.917 253.82C877.917 253.387 877.81 253.047 877.597 252.8C877.39 252.547 877.054 252.42 876.587 252.42C876.134 252.42 875.78 252.563 875.527 252.85C875.28 253.13 875.147 253.507 875.127 253.98H874.247C874.274 253.233 874.5 252.657 874.927 252.25C875.354 251.843 875.904 251.64 876.577 251.64C877.264 251.64 877.807 251.83 878.207 252.21C878.614 252.59 878.817 253.113 878.817 253.78C878.817 254.333 878.65 254.873 878.317 255.4C877.99 255.92 877.617 256.38 877.197 256.78C876.777 257.173 876.24 257.633 875.587 258.16H879.027V258.92H874.217V258.27ZM880.079 255.31C880.079 254.163 880.266 253.27 880.639 252.63C881.012 251.983 881.666 251.66 882.599 251.66C883.526 251.66 884.176 251.983 884.549 252.63C884.922 253.27 885.109 254.163 885.109 255.31C885.109 256.477 884.922 257.383 884.549 258.03C884.176 258.677 883.526 259 882.599 259C881.666 259 881.012 258.677 880.639 258.03C880.266 257.383 880.079 256.477 880.079 255.31ZM884.209 255.31C884.209 254.73 884.169 254.24 884.089 253.84C884.016 253.433 883.859 253.107 883.619 252.86C883.386 252.613 883.046 252.49 882.599 252.49C882.146 252.49 881.799 252.613 881.559 252.86C881.326 253.107 881.169 253.433 881.089 253.84C881.016 254.24 880.979 254.73 880.979 255.31C880.979 255.91 881.016 256.413 881.089 256.82C881.169 257.227 881.326 257.553 881.559 257.8C881.799 258.047 882.146 258.17 882.599 258.17C883.046 258.17 883.386 258.047 883.619 257.8C883.859 257.553 884.016 257.227 884.089 256.82C884.169 256.413 884.209 255.91 884.209 255.31ZM886.798 259.06C886.625 259.06 886.478 259 886.358 258.88C886.238 258.76 886.178 258.613 886.178 258.44C886.178 258.267 886.238 258.12 886.358 258C886.478 257.88 886.625 257.82 886.798 257.82C886.965 257.82 887.105 257.88 887.218 258C887.338 258.12 887.398 258.267 887.398 258.44C887.398 258.613 887.338 258.76 887.218 258.88C887.105 259 886.965 259.06 886.798 259.06ZM889.778 255.24C889.405 255.093 889.118 254.88 888.918 254.6C888.718 254.32 888.618 253.98 888.618 253.58C888.618 253.22 888.708 252.897 888.888 252.61C889.068 252.317 889.335 252.087 889.688 251.92C890.048 251.747 890.481 251.66 890.988 251.66C891.495 251.66 891.925 251.747 892.278 251.92C892.638 252.087 892.908 252.317 893.088 252.61C893.275 252.897 893.368 253.22 893.368 253.58C893.368 253.967 893.265 254.307 893.058 254.6C892.851 254.887 892.568 255.1 892.208 255.24C892.621 255.367 892.948 255.59 893.188 255.91C893.435 256.223 893.558 256.603 893.558 257.05C893.558 257.483 893.451 257.863 893.238 258.19C893.025 258.51 892.721 258.76 892.328 258.94C891.941 259.113 891.495 259.2 890.988 259.2C890.481 259.2 890.035 259.113 889.648 258.94C889.268 258.76 888.971 258.51 888.758 258.19C888.545 257.863 888.438 257.483 888.438 257.05C888.438 256.603 888.558 256.22 888.798 255.9C889.038 255.58 889.365 255.36 889.778 255.24ZM892.488 253.69C892.488 253.283 892.355 252.97 892.088 252.75C891.821 252.53 891.455 252.42 890.988 252.42C890.528 252.42 890.165 252.53 889.898 252.75C889.631 252.97 889.498 253.287 889.498 253.7C889.498 254.073 889.635 254.373 889.908 254.6C890.188 254.827 890.548 254.94 890.988 254.94C891.435 254.94 891.795 254.827 892.068 254.6C892.348 254.367 892.488 254.063 892.488 253.69ZM890.988 255.64C890.495 255.64 890.091 255.757 889.778 255.99C889.465 256.217 889.308 256.56 889.308 257.02C889.308 257.447 889.458 257.79 889.758 258.05C890.065 258.31 890.475 258.44 890.988 258.44C891.501 258.44 891.908 258.31 892.208 258.05C892.508 257.79 892.658 257.447 892.658 257.02C892.658 256.573 892.505 256.233 892.198 256C891.891 255.76 891.488 255.64 890.988 255.64ZM897.976 259L895.826 256.58V259H894.916V251.6H895.826V255.95L897.936 253.52H899.206L896.626 256.25L899.216 259H897.976Z" fill="#A4A8AB"/>
<path d="M874.217 217.27C875.064 216.59 875.727 216.033 876.207 215.6C876.687 215.16 877.09 214.703 877.417 214.23C877.75 213.75 877.917 213.28 877.917 212.82C877.917 212.387 877.81 212.047 877.597 211.8C877.39 211.547 877.054 211.42 876.587 211.42C876.134 211.42 875.78 211.563 875.527 211.85C875.28 212.13 875.147 212.507 875.127 212.98H874.247C874.274 212.233 874.5 211.657 874.927 211.25C875.354 210.843 875.904 210.64 876.577 210.64C877.264 210.64 877.807 210.83 878.207 211.21C878.614 211.59 878.817 212.113 878.817 212.78C878.817 213.333 878.65 213.873 878.317 214.4C877.99 214.92 877.617 215.38 877.197 215.78C876.777 216.173 876.24 216.633 875.587 217.16H879.027V217.92H874.217V217.27ZM880.079 214.31C880.079 213.163 880.266 212.27 880.639 211.63C881.012 210.983 881.666 210.66 882.599 210.66C883.526 210.66 884.176 210.983 884.549 211.63C884.922 212.27 885.109 213.163 885.109 214.31C885.109 215.477 884.922 216.383 884.549 217.03C884.176 217.677 883.526 218 882.599 218C881.666 218 881.012 217.677 880.639 217.03C880.266 216.383 880.079 215.477 880.079 214.31ZM884.209 214.31C884.209 213.73 884.169 213.24 884.089 212.84C884.016 212.433 883.859 212.107 883.619 211.86C883.386 211.613 883.046 211.49 882.599 211.49C882.146 211.49 881.799 211.613 881.559 211.86C881.326 212.107 881.169 212.433 881.089 212.84C881.016 213.24 880.979 213.73 880.979 214.31C880.979 214.91 881.016 215.413 881.089 215.82C881.169 216.227 881.326 216.553 881.559 216.8C881.799 217.047 882.146 217.17 882.599 217.17C883.046 217.17 883.386 217.047 883.619 216.8C883.859 216.553 884.016 216.227 884.089 215.82C884.169 215.413 884.209 214.91 884.209 214.31ZM886.798 218.06C886.625 218.06 886.478 218 886.358 217.88C886.238 217.76 886.178 217.613 886.178 217.44C886.178 217.267 886.238 217.12 886.358 217C886.478 216.88 886.625 216.82 886.798 216.82C886.965 216.82 887.105 216.88 887.218 217C887.338 217.12 887.398 217.267 887.398 217.44C887.398 217.613 887.338 217.76 887.218 217.88C887.105 218 886.965 218.06 886.798 218.06ZM889.778 214.24C889.405 214.093 889.118 213.88 888.918 213.6C888.718 213.32 888.618 212.98 888.618 212.58C888.618 212.22 888.708 211.897 888.888 211.61C889.068 211.317 889.335 211.087 889.688 210.92C890.048 210.747 890.481 210.66 890.988 210.66C891.495 210.66 891.925 210.747 892.278 210.92C892.638 211.087 892.908 211.317 893.088 211.61C893.275 211.897 893.368 212.22 893.368 212.58C893.368 212.967 893.265 213.307 893.058 213.6C892.851 213.887 892.568 214.1 892.208 214.24C892.621 214.367 892.948 214.59 893.188 214.91C893.435 215.223 893.558 215.603 893.558 216.05C893.558 216.483 893.451 216.863 893.238 217.19C893.025 217.51 892.721 217.76 892.328 217.94C891.941 218.113 891.495 218.2 890.988 218.2C890.481 218.2 890.035 218.113 889.648 217.94C889.268 217.76 888.971 217.51 888.758 217.19C888.545 216.863 888.438 216.483 888.438 216.05C888.438 215.603 888.558 215.22 888.798 214.9C889.038 214.58 889.365 214.36 889.778 214.24ZM892.488 212.69C892.488 212.283 892.355 211.97 892.088 211.75C891.821 211.53 891.455 211.42 890.988 211.42C890.528 211.42 890.165 211.53 889.898 211.75C889.631 211.97 889.498 212.287 889.498 212.7C889.498 213.073 889.635 213.373 889.908 213.6C890.188 213.827 890.548 213.94 890.988 213.94C891.435 213.94 891.795 213.827 892.068 213.6C892.348 213.367 892.488 213.063 892.488 212.69ZM890.988 214.64C890.495 214.64 890.091 214.757 889.778 214.99C889.465 215.217 889.308 215.56 889.308 216.02C889.308 216.447 889.458 216.79 889.758 217.05C890.065 217.31 890.475 217.44 890.988 217.44C891.501 217.44 891.908 217.31 892.208 217.05C892.508 216.79 892.658 216.447 892.658 216.02C892.658 215.573 892.505 215.233 892.198 215C891.891 214.76 891.488 214.64 890.988 214.64ZM897.976 218L895.826 215.58V218H894.916V210.6H895.826V214.95L897.936 212.52H899.206L896.626 215.25L899.216 218H897.976Z" fill="#A4A8AB"/>
<path d="M874.217 177.27C875.064 176.59 875.727 176.033 876.207 175.6C876.687 175.16 877.09 174.703 877.417 174.23C877.75 173.75 877.917 173.28 877.917 172.82C877.917 172.387 877.81 172.047 877.597 171.8C877.39 171.547 877.054 171.42 876.587 171.42C876.134 171.42 875.78 171.563 875.527 171.85C875.28 172.13 875.147 172.507 875.127 172.98H874.247C874.274 172.233 874.5 171.657 874.927 171.25C875.354 170.843 875.904 170.64 876.577 170.64C877.264 170.64 877.807 170.83 878.207 171.21C878.614 171.59 878.817 172.113 878.817 172.78C878.817 173.333 878.65 173.873 878.317 174.4C877.99 174.92 877.617 175.38 877.197 175.78C876.777 176.173 876.24 176.633 875.587 177.16H879.027V177.92H874.217V177.27ZM880.079 174.31C880.079 173.163 880.266 172.27 880.639 171.63C881.012 170.983 881.666 170.66 882.599 170.66C883.526 170.66 884.176 170.983 884.549 171.63C884.922 172.27 885.109 173.163 885.109 174.31C885.109 175.477 884.922 176.383 884.549 177.03C884.176 177.677 883.526 178 882.599 178C881.666 178 881.012 177.677 880.639 177.03C880.266 176.383 880.079 175.477 880.079 174.31ZM884.209 174.31C884.209 173.73 884.169 173.24 884.089 172.84C884.016 172.433 883.859 172.107 883.619 171.86C883.386 171.613 883.046 171.49 882.599 171.49C882.146 171.49 881.799 171.613 881.559 171.86C881.326 172.107 881.169 172.433 881.089 172.84C881.016 173.24 880.979 173.73 880.979 174.31C880.979 174.91 881.016 175.413 881.089 175.82C881.169 176.227 881.326 176.553 881.559 176.8C881.799 177.047 882.146 177.17 882.599 177.17C883.046 177.17 883.386 177.047 883.619 176.8C883.859 176.553 884.016 176.227 884.089 175.82C884.169 175.413 884.209 174.91 884.209 174.31ZM886.798 178.06C886.625 178.06 886.478 178 886.358 177.88C886.238 177.76 886.178 177.613 886.178 177.44C886.178 177.267 886.238 177.12 886.358 177C886.478 176.88 886.625 176.82 886.798 176.82C886.965 176.82 887.105 176.88 887.218 177C887.338 177.12 887.398 177.267 887.398 177.44C887.398 177.613 887.338 177.76 887.218 177.88C887.105 178 886.965 178.06 886.798 178.06ZM889.778 174.24C889.405 174.093 889.118 173.88 888.918 173.6C888.718 173.32 888.618 172.98 888.618 172.58C888.618 172.22 888.708 171.897 888.888 171.61C889.068 171.317 889.335 171.087 889.688 170.92C890.048 170.747 890.481 170.66 890.988 170.66C891.495 170.66 891.925 170.747 892.278 170.92C892.638 171.087 892.908 171.317 893.088 171.61C893.275 171.897 893.368 172.22 893.368 172.58C893.368 172.967 893.265 173.307 893.058 173.6C892.851 173.887 892.568 174.1 892.208 174.24C892.621 174.367 892.948 174.59 893.188 174.91C893.435 175.223 893.558 175.603 893.558 176.05C893.558 176.483 893.451 176.863 893.238 177.19C893.025 177.51 892.721 177.76 892.328 177.94C891.941 178.113 891.495 178.2 890.988 178.2C890.481 178.2 890.035 178.113 889.648 177.94C889.268 177.76 888.971 177.51 888.758 177.19C888.545 176.863 888.438 176.483 888.438 176.05C888.438 175.603 888.558 175.22 888.798 174.9C889.038 174.58 889.365 174.36 889.778 174.24ZM892.488 172.69C892.488 172.283 892.355 171.97 892.088 171.75C891.821 171.53 891.455 171.42 890.988 171.42C890.528 171.42 890.165 171.53 889.898 171.75C889.631 171.97 889.498 172.287 889.498 172.7C889.498 173.073 889.635 173.373 889.908 173.6C890.188 173.827 890.548 173.94 890.988 173.94C891.435 173.94 891.795 173.827 892.068 173.6C892.348 173.367 892.488 173.063 892.488 172.69ZM890.988 174.64C890.495 174.64 890.091 174.757 889.778 174.99C889.465 175.217 889.308 175.56 889.308 176.02C889.308 176.447 889.458 176.79 889.758 177.05C890.065 177.31 890.475 177.44 890.988 177.44C891.501 177.44 891.908 177.31 892.208 177.05C892.508 176.79 892.658 176.447 892.658 176.02C892.658 175.573 892.505 175.233 892.198 175C891.891 174.76 891.488 174.64 890.988 174.64ZM897.976 178L895.826 175.58V178H894.916V170.6H895.826V174.95L897.936 172.52H899.206L896.626 175.25L899.216 178H897.976Z" fill="#A4A8AB"/>
<path d="M874.217 136.27C875.064 135.59 875.727 135.033 876.207 134.6C876.687 134.16 877.09 133.703 877.417 133.23C877.75 132.75 877.917 132.28 877.917 131.82C877.917 131.387 877.81 131.047 877.597 130.8C877.39 130.547 877.054 130.42 876.587 130.42C876.134 130.42 875.78 130.563 875.527 130.85C875.28 131.13 875.147 131.507 875.127 131.98H874.247C874.274 131.233 874.5 130.657 874.927 130.25C875.354 129.843 875.904 129.64 876.577 129.64C877.264 129.64 877.807 129.83 878.207 130.21C878.614 130.59 878.817 131.113 878.817 131.78C878.817 132.333 878.65 132.873 878.317 133.4C877.99 133.92 877.617 134.38 877.197 134.78C876.777 135.173 876.24 135.633 875.587 136.16H879.027V136.92H874.217V136.27ZM880.079 133.31C880.079 132.163 880.266 131.27 880.639 130.63C881.012 129.983 881.666 129.66 882.599 129.66C883.526 129.66 884.176 129.983 884.549 130.63C884.922 131.27 885.109 132.163 885.109 133.31C885.109 134.477 884.922 135.383 884.549 136.03C884.176 136.677 883.526 137 882.599 137C881.666 137 881.012 136.677 880.639 136.03C880.266 135.383 880.079 134.477 880.079 133.31ZM884.209 133.31C884.209 132.73 884.169 132.24 884.089 131.84C884.016 131.433 883.859 131.107 883.619 130.86C883.386 130.613 883.046 130.49 882.599 130.49C882.146 130.49 881.799 130.613 881.559 130.86C881.326 131.107 881.169 131.433 881.089 131.84C881.016 132.24 880.979 132.73 880.979 133.31C880.979 133.91 881.016 134.413 881.089 134.82C881.169 135.227 881.326 135.553 881.559 135.8C881.799 136.047 882.146 136.17 882.599 136.17C883.046 136.17 883.386 136.047 883.619 135.8C883.859 135.553 884.016 135.227 884.089 134.82C884.169 134.413 884.209 133.91 884.209 133.31ZM886.798 137.06C886.625 137.06 886.478 137 886.358 136.88C886.238 136.76 886.178 136.613 886.178 136.44C886.178 136.267 886.238 136.12 886.358 136C886.478 135.88 886.625 135.82 886.798 135.82C886.965 135.82 887.105 135.88 887.218 136C887.338 136.12 887.398 136.267 887.398 136.44C887.398 136.613 887.338 136.76 887.218 136.88C887.105 137 886.965 137.06 886.798 137.06ZM889.778 133.24C889.405 133.093 889.118 132.88 888.918 132.6C888.718 132.32 888.618 131.98 888.618 131.58C888.618 131.22 888.708 130.897 888.888 130.61C889.068 130.317 889.335 130.087 889.688 129.92C890.048 129.747 890.481 129.66 890.988 129.66C891.495 129.66 891.925 129.747 892.278 129.92C892.638 130.087 892.908 130.317 893.088 130.61C893.275 130.897 893.368 131.22 893.368 131.58C893.368 131.967 893.265 132.307 893.058 132.6C892.851 132.887 892.568 133.1 892.208 133.24C892.621 133.367 892.948 133.59 893.188 133.91C893.435 134.223 893.558 134.603 893.558 135.05C893.558 135.483 893.451 135.863 893.238 136.19C893.025 136.51 892.721 136.76 892.328 136.94C891.941 137.113 891.495 137.2 890.988 137.2C890.481 137.2 890.035 137.113 889.648 136.94C889.268 136.76 888.971 136.51 888.758 136.19C888.545 135.863 888.438 135.483 888.438 135.05C888.438 134.603 888.558 134.22 888.798 133.9C889.038 133.58 889.365 133.36 889.778 133.24ZM892.488 131.69C892.488 131.283 892.355 130.97 892.088 130.75C891.821 130.53 891.455 130.42 890.988 130.42C890.528 130.42 890.165 130.53 889.898 130.75C889.631 130.97 889.498 131.287 889.498 131.7C889.498 132.073 889.635 132.373 889.908 132.6C890.188 132.827 890.548 132.94 890.988 132.94C891.435 132.94 891.795 132.827 892.068 132.6C892.348 132.367 892.488 132.063 892.488 131.69ZM890.988 133.64C890.495 133.64 890.091 133.757 889.778 133.99C889.465 134.217 889.308 134.56 889.308 135.02C889.308 135.447 889.458 135.79 889.758 136.05C890.065 136.31 890.475 136.44 890.988 136.44C891.501 136.44 891.908 136.31 892.208 136.05C892.508 135.79 892.658 135.447 892.658 135.02C892.658 134.573 892.505 134.233 892.198 134C891.891 133.76 891.488 133.64 890.988 133.64ZM897.976 137L895.826 134.58V137H894.916V129.6H895.826V133.95L897.936 131.52H899.206L896.626 134.25L899.216 137H897.976Z" fill="#A4A8AB"/>
<defs>
<clipPath id="clip0_117_1416">
<rect width="19.4179" height="16" fill="white" transform="translate(889.582 750)"/>
</clipPath>
</defs>
</svg>
