<svg width="16" height="16" viewBox="0 0 16 16" fill="none" xmlns="http://www.w3.org/2000/svg">
<g clip-path="url(#clip0_117_1953)">
<path d="M4.95236 9.90473C7.68748 9.90473 9.90473 7.68748 9.90473 4.95236C9.90473 2.21725 7.68748 0 4.95236 0C2.21725 0 0 2.21725 0 4.95236C0 7.68748 2.21725 9.90473 4.95236 9.90473Z" fill="#F7931A"/>
<path d="M7.17728 4.33949C7.27447 3.69073 6.78017 3.3419 6.10479 3.10914L6.32393 2.23009L5.78907 2.097L5.5755 2.95283C5.43498 2.91754 5.29074 2.88473 5.14681 2.85192L5.36193 1.99052L4.82708 1.85712L4.60793 2.73585C4.49155 2.70923 4.37703 2.68323 4.26622 2.65538L4.26684 2.65259L3.52894 2.46842L3.38656 3.0398C3.38656 3.0398 3.78368 3.1308 3.77532 3.13637C3.99198 3.19054 4.03098 3.33385 4.02448 3.44775L3.77501 4.44906C3.78987 4.45277 3.80906 4.45835 3.83072 4.4667L3.77408 4.45277L3.42432 5.85553C3.3977 5.92115 3.33053 6.01989 3.17887 5.98244C3.18444 5.99017 2.79011 5.88556 2.79011 5.88556L2.52454 6.49779L3.22096 6.67143C3.35034 6.70393 3.47725 6.73798 3.60198 6.76986L3.38068 7.65881L3.91522 7.79191L4.13436 6.91286C4.28046 6.95217 4.42222 6.9887 4.56089 7.02336L4.34236 7.89869L4.87722 8.03179L5.09853 7.14469C6.011 7.31741 6.6969 7.24777 6.98569 6.42258C7.21845 5.75834 6.97424 5.37484 6.49417 5.12506C6.84393 5.04458 7.10702 4.81461 7.17728 4.33949ZM5.95467 6.05363C5.78969 6.71817 4.67077 6.35882 4.30801 6.26875L4.60205 5.09101C4.96481 5.1817 6.12769 5.36092 5.95467 6.05363ZM6.12026 4.32989C5.96953 4.93439 5.03848 4.62704 4.7367 4.55182L5.00289 3.48397C5.30467 3.55918 6.2775 3.6994 6.12026 4.32989Z" fill="white"/>
</g>
<rect x="5.26025" y="5.26208" width="9.90473" height="9.90473" rx="4.95236" fill="#161D26"/>
<path d="M11.0454 15.9637C13.7805 15.9637 15.9977 13.7464 15.9977 11.0113C15.9977 8.27621 13.7805 6.05896 11.0454 6.05896C8.31027 6.05896 6.09302 8.27621 6.09302 11.0113C6.09302 13.7464 8.31027 15.9637 11.0454 15.9637Z" fill="#26A17B"/>
<path fill-rule="evenodd" clip-rule="evenodd" d="M11.6409 11.4395C11.6068 11.4419 11.4313 11.4525 11.0398 11.4525C10.7272 11.4525 10.5071 11.4432 10.4297 11.4395C9.2263 11.3865 8.32807 11.177 8.32807 10.9263C8.32807 10.6756 9.22569 10.4663 10.4297 10.4125V11.2312C10.5083 11.2367 10.7337 11.25 11.0451 11.25C11.4187 11.25 11.6059 11.2346 11.6409 11.2315V10.4134C12.8418 10.4669 13.7379 10.6765 13.7379 10.9266C13.7379 11.1767 12.8403 11.3862 11.6409 11.4395ZM11.6409 10.3283V9.59595H13.3166V8.47919H8.75552V9.59595H10.4313V10.328C9.06938 10.3899 8.04517 10.6604 8.04517 10.9835C8.04517 11.3067 9.06938 11.5763 10.4313 11.6391V13.9859H11.6424V11.6385C13.0022 11.5766 14.0239 11.3064 14.0239 10.9835C14.0239 10.6607 13.0025 10.3911 11.6424 10.3283" fill="white"/>
<defs>
<clipPath id="clip0_117_1953">
<rect width="9.90473" height="9.90473" fill="white"/>
</clipPath>
</defs>
</svg>
