<svg width="24" height="24" viewBox="0 0 24 24" fill="none" xmlns="http://www.w3.org/2000/svg">
<path fill-rule="evenodd" clip-rule="evenodd" d="M12 24C18.6274 24 24 18.6274 24 12C24 5.37258 18.6274 0 12 0C5.37258 0 0 5.37258 0 12C0 18.6274 5.37258 24 12 24ZM12.0001 19.09C15.9163 19.09 19.091 15.9153 19.091 11.9991C19.091 8.08291 15.9163 4.9082 12.0001 4.9082C8.08389 4.9082 4.90918 8.08291 4.90918 11.9991C4.90918 15.9153 8.08389 19.09 12.0001 19.09Z" fill="url(#paint0_linear_200_785)"/>
<path d="M19.0332 21.724C17.0569 23.1558 14.627 24 12 24C5.37258 24 0 18.6274 0 12C0 5.37258 5.37258 0 12 0C14.6414 0 17.0835 0.853423 19.0655 2.29958L16.2543 6.32654C15.0692 5.43649 13.5962 4.90909 12 4.90909C8.0838 4.90909 4.90909 8.0838 4.90909 12C4.90909 15.9162 8.0838 19.0909 12 19.0909C13.6095 19.0909 15.0938 18.5546 16.284 17.651L19.0332 21.724Z" fill="url(#paint1_linear_200_785)"/>
<defs>
<linearGradient id="paint0_linear_200_785" x1="12" y1="0" x2="12" y2="24" gradientUnits="userSpaceOnUse">
<stop stop-color="#757575"/>
<stop offset="1" stop-color="#4B4B4B"/>
</linearGradient>
<linearGradient id="paint1_linear_200_785" x1="9.53277" y1="0" x2="9.53277" y2="24" gradientUnits="userSpaceOnUse">
<stop stop-color="#D5D5D5"/>
<stop offset="1" stop-color="white"/>
</linearGradient>
</defs>
</svg>
