<svg width="36" height="36" viewBox="0 0 36 36" fill="none" xmlns="http://www.w3.org/2000/svg">
<g id="wallet_identity">
<g id="wallet_identity_2">
<path id="Vector" d="M25.7133 11C24.0362 11 22.208 11.8594 20.2757 13.5521C19.359 14.3542 18.5673 15.2136 17.9736 15.9012C17.9736 15.9012 17.9736 15.9012 17.9788 15.9064V15.9012C17.9788 15.9012 18.9163 16.922 19.9528 18.0158C20.5101 17.3543 21.3123 16.4533 22.2341 15.6407C23.9529 14.1355 25.0726 13.8178 25.7133 13.8178C28.1249 13.8178 30.0832 15.7293 30.0832 18.0783C30.0832 20.4117 28.1197 22.3232 25.7133 22.3388C25.6039 22.3388 25.4633 22.3232 25.2862 22.2867C25.9894 22.5888 26.7446 22.8076 27.4634 22.8076C31.8801 22.8076 32.7447 19.9273 32.802 19.719C32.9322 19.1929 33 18.6408 33 18.0731C33 14.1772 29.7291 11 25.7133 11Z" fill="url(#paint0_linear_2376_1631)"/>
<path id="Vector_2" d="M10.2866 25.1669C11.9637 25.1669 13.7919 24.3075 15.7243 22.6148C16.641 21.8127 17.4327 20.9533 18.0263 20.2658C18.0263 20.2658 18.0263 20.2658 18.0211 20.2605V20.2658C18.0211 20.2658 17.0837 19.2449 16.0472 18.1511C15.4899 18.8126 14.6878 19.7136 13.7659 20.5262C12.0471 22.0314 10.9273 22.3491 10.2866 22.3491C7.87511 22.3439 5.91673 20.4324 5.91673 18.0834C5.91673 15.75 7.88032 13.8385 10.2866 13.8229C10.396 13.8229 10.5366 13.8385 10.7137 13.875C10.0106 13.5729 9.25535 13.3541 8.53658 13.3541C4.11982 13.3541 3.26042 16.2344 3.19792 16.4375C3.06771 16.9688 3 17.5157 3 18.0834C3 21.9898 6.27091 25.1669 10.2866 25.1669Z" fill="url(#paint1_linear_2376_1631)"/>
<path id="Vector_3" d="M27.4533 22.7451C25.1928 22.6878 22.8438 20.9065 22.3646 20.4638C21.1251 19.3179 18.2655 16.2189 18.0417 15.9741C15.9478 13.6251 13.1092 11 10.2862 11H10.281H10.2758C6.84863 11.0156 3.96836 13.3386 3.19751 16.4376C3.2548 16.2345 4.38504 13.2969 8.53096 13.4011C10.7914 13.4584 13.1509 15.2657 13.6353 15.7084C14.8749 16.8543 17.7343 19.9533 17.9583 20.1981C20.0521 22.5419 22.8907 25.167 25.7136 25.167H25.7188H25.724C29.1512 25.1514 32.0367 22.8284 32.8023 19.7294C32.7398 19.9325 31.6044 22.844 27.4533 22.7451Z" fill="#29ABE2"/>
</g>
</g>
<defs>
<linearGradient id="paint0_linear_2376_1631" x1="21.9202" y1="11.9341" x2="31.8272" y2="22.1931" gradientUnits="userSpaceOnUse">
<stop offset="0.21" stop-color="#F15A24"/>
<stop offset="0.6841" stop-color="#FBB03B"/>
</linearGradient>
<linearGradient id="paint1_linear_2376_1631" x1="14.0797" y1="24.2328" x2="4.17268" y2="13.9738" gradientUnits="userSpaceOnUse">
<stop offset="0.21" stop-color="#ED1E79"/>
<stop offset="0.8929" stop-color="#522785"/>
</linearGradient>
</defs>
</svg>
