<svg width="36" height="36" viewBox="0 0 36 36" fill="none" xmlns="http://www.w3.org/2000/svg">
<g id="wallet_astrox">
<g id="wallet_astrox_2">
<path id="Fill-1" fill-rule="evenodd" clip-rule="evenodd" d="M26.6079 17.8228C26.6079 17.8228 26.4484 18.3011 26.2831 18.9943L26.2233 19.6213C26.0523 21.4747 26.9954 22.0072 28.9955 22.0132L28.5396 24.5453L28.5054 24.7283C28.1578 24.7572 27.7903 24.7744 27.4057 24.7744C23.1662 24.7744 21.5621 22.6577 22.4055 18.7451L22.471 18.4472C23.2602 14.7864 26.0495 12.4863 29.6166 12.4863C30.0041 12.4863 30.363 12.5064 30.6964 12.5468C30.6964 12.5468 29.0086 13.8033 28.5017 14.2135C27.4852 15.0367 27.1492 16.1185 26.6108 17.8228H26.6079Z" fill="url(#paint0_linear_2376_1618)"/>
<path id="Fill-3" fill-rule="evenodd" clip-rule="evenodd" d="M31.2123 18.0664H29.1972C28.2513 18.0664 27.3461 18.9944 27.3461 18.9944C27.5114 18.3013 27.6709 17.8229 27.6709 17.8229H27.6738C28.2122 16.1187 28.8191 15.0303 30.124 15.0649C31.9132 15.1133 31.5856 16.3392 31.2123 18.0664ZM30.6796 12.4871C27.1125 12.4871 24.3232 14.7868 23.534 18.4474L23.4685 18.7452C22.6251 22.6579 24.2292 24.7746 28.4687 24.7746C30.6682 24.7746 32.2637 24.2447 33.2808 23.7176L34.3749 21.1028C33.3691 21.4692 31.4944 22.0134 30.0841 22.0134C28.0669 22.0134 27.1153 21.4838 27.2863 19.622H34.6512L34.8706 18.608C35.7111 14.7183 34.6854 12.4871 30.6796 12.4871Z" fill="black"/>
<path id="Fill-5" fill-rule="evenodd" clip-rule="evenodd" d="M8.74612 12.4783L6.57795 24.5455H3.14477L4.9568 16.15C5.03943 15.7349 2.77439 16.1359 0.856934 17.6683L1.15894 16.1216C2.09345 14.5746 3.00231 13.3776 5.05083 12.5696C6.34432 12.0569 7.91988 11.9827 8.74612 12.4783Z" fill="url(#paint1_linear_2376_1618)"/>
<path id="Fill-7" fill-rule="evenodd" clip-rule="evenodd" d="M20.7596 22.4248L22.2138 15.686C22.7204 13.3387 21.6765 12.4874 19.6385 12.4874C18.2026 12.4874 17.239 13.4406 16.2418 14.5758L16.225 14.4758C16.1264 13.4931 15.0788 12.4874 13.7124 12.4874C12.1605 12.4874 11.3533 13.4209 10.5729 14.3839L10.4054 14.6233L10.3946 14.617L10.5672 13.8737C11.0986 12.0354 8.39222 11.7696 6.37077 12.569C4.3234 13.3785 3.4151 14.576 2.48145 16.1228L2.17944 17.6683C4.09405 16.1354 6.36023 15.7358 6.27732 16.1514L4.46614 24.5449H8.42641L10.2886 15.916C10.7604 15.631 11.1242 15.5026 11.553 15.5247C12.2932 15.5628 12.3106 15.8698 12.112 16.7904L10.4384 24.5449H14.3759L16.1786 16.1921C16.1934 16.123 16.2096 15.985 16.2147 15.916C16.7148 15.604 16.9797 15.5301 17.188 15.5247C18.1424 15.5009 18.237 15.8698 18.0382 16.7904L16.3649 24.5449H18.5068H20.3021H21.4842C21.4842 24.5449 20.3958 24.1107 20.7596 22.4248Z" fill="black"/>
</g>
</g>
<defs>
<linearGradient id="paint0_linear_2376_1618" x1="651.509" y1="1241.29" x2="-38.7215" y2="210.546" gradientUnits="userSpaceOnUse">
<stop stop-color="#02A4EF"/>
<stop offset="1" stop-color="#2DFFC4"/>
</linearGradient>
<linearGradient id="paint1_linear_2376_1618" x1="554.93" y1="1252.36" x2="-83.3558" y2="214.885" gradientUnits="userSpaceOnUse">
<stop stop-color="#02A4EF"/>
<stop offset="1" stop-color="#2DFFC4"/>
</linearGradient>
</defs>
</svg>
