<svg width="36" height="36" viewBox="0 0 36 36" fill="none" xmlns="http://www.w3.org/2000/svg">
<g id="wallet_nfid">
<g id="wallet_nfid_2">
<path id="Vector" fill-rule="evenodd" clip-rule="evenodd" d="M10.9852 5.38094C11.367 5.3404 11.6434 4.99929 11.6028 4.61905C11.562 4.2388 11.2196 3.96342 10.8378 4.00396L9.41804 4.15472C8.69065 4.23196 8.10726 4.2939 7.63343 4.37946C7.14536 4.4676 6.72704 4.58809 6.33854 4.80496C5.70774 5.15705 5.1848 5.67301 4.82557 6.29784C4.60427 6.68275 4.47968 7.09813 4.38711 7.58312C4.29721 8.05384 4.23014 8.63376 4.14657 9.35665L4.14298 9.38778L4.00354 10.7686C3.96513 11.1491 4.24371 11.4886 4.6257 11.5268C5.00768 11.5651 5.34852 11.2877 5.38693 10.9071L5.52533 9.53628C5.61231 8.78386 5.6739 8.25589 5.75297 7.84188C5.83051 7.43556 5.91718 7.18593 6.03215 6.98593C6.26617 6.57886 6.60695 6.24255 7.01821 6.01297C7.22041 5.90011 7.47226 5.81593 7.88152 5.74204C8.29929 5.66658 8.83203 5.60958 9.59168 5.52891L10.9852 5.38094ZM24.511 4.61905C24.4703 4.99929 24.7467 5.3404 25.1285 5.38094L26.522 5.52891C27.2817 5.60958 27.8144 5.66658 28.2322 5.74204C28.6414 5.81593 28.8933 5.90011 29.0955 6.01297C29.5068 6.24255 29.8476 6.57886 30.0816 6.98593C30.1965 7.18593 30.2832 7.43556 30.3607 7.84188C30.4398 8.25589 30.5014 8.78386 30.5884 9.53628L30.7268 10.9071C30.7652 11.2877 31.106 11.5651 31.488 11.5268C31.87 11.4886 32.1486 11.1491 32.1102 10.7686L31.9707 9.38778L31.9671 9.35665C31.8836 8.63383 31.8165 8.0538 31.7266 7.58312C31.634 7.09813 31.5094 6.68275 31.2881 6.29784C30.9289 5.67301 30.406 5.15705 29.7752 4.80496C29.3867 4.58809 28.9683 4.4676 28.4803 4.37946C28.0064 4.2939 27.4231 4.23196 26.6957 4.15472L25.276 4.00396C24.8942 3.96342 24.5517 4.2388 24.511 4.61905ZM24.511 31.3809C24.4703 31.0007 24.7467 30.6596 25.1285 30.619L26.522 30.4711C27.2817 30.3904 27.8144 30.3334 28.2322 30.258C28.6414 30.184 28.8933 30.0999 29.0955 29.987C29.5068 29.7575 29.8476 29.4211 30.0816 29.0141C30.1965 28.8141 30.2832 28.5644 30.3607 28.1581C30.4398 27.7441 30.5014 27.2161 30.5884 26.4637L30.7268 25.0929C30.7652 24.7123 31.106 24.4349 31.488 24.4732C31.87 24.5114 32.1486 24.8509 32.1102 25.2314L31.9707 26.6122L31.9671 26.6434C31.8836 27.3661 31.8165 27.9462 31.7266 28.4169C31.634 28.9019 31.5094 29.3173 31.2881 29.7022C30.9289 30.327 30.406 30.843 29.7752 31.1951C29.3867 31.4119 28.9683 31.5324 28.4803 31.6205C28.0065 31.7061 27.4232 31.768 26.696 31.8452L25.276 31.996C24.8942 32.0366 24.5517 31.7612 24.511 31.3809ZM11.6028 31.3809C11.6434 31.0007 11.367 30.6596 10.9852 30.619L9.59168 30.4711C8.83203 30.3904 8.29929 30.3334 7.88152 30.258C7.47226 30.184 7.22041 30.0999 7.01821 29.987C6.60695 29.7575 6.26617 29.4211 6.03215 29.0141C5.91718 28.8141 5.83051 28.5644 5.75297 28.1581C5.6739 27.7441 5.61231 27.2161 5.52533 26.4637L5.38693 25.0929C5.34852 24.7123 5.00768 24.4349 4.6257 24.4732C4.24371 24.5114 3.96513 24.8509 4.00354 25.2314L4.14298 26.6122L4.14657 26.6434C4.23014 27.3663 4.29721 27.9462 4.38711 28.4169C4.47968 28.9019 4.60427 29.3173 4.82557 29.7022C5.1848 30.327 5.70774 30.843 6.33854 31.1951C6.72704 31.4119 7.14536 31.5324 7.63343 31.6205C8.10726 31.7061 8.69059 31.768 9.41792 31.8453L10.8378 31.996C11.2196 32.0366 11.562 31.7612 11.6028 31.3809ZM11.0858 12.6613C10.8309 12.6613 10.6242 12.8679 10.6242 13.1229V23.0809C10.6242 23.3358 10.8309 23.5425 11.0858 23.5425H13.2529C13.5078 23.5425 13.7145 23.3358 13.7145 23.0809V13.1229C13.7145 12.8679 13.5078 12.6613 13.2529 12.6613H11.0858ZM16.2064 12.6613C15.9514 12.6613 15.7448 12.8679 15.7448 13.1229V23.0809C15.7448 23.3358 15.9514 23.5425 16.2064 23.5425H20.9108C22.1073 23.5425 23.1686 23.3197 24.0947 22.8741C25.0207 22.4285 25.7386 21.7963 26.2485 20.9776C26.7583 20.159 27.0133 19.2004 27.0133 18.1019C27.0133 17.0034 26.7583 16.0448 26.2485 15.2261C25.7386 14.4074 25.0207 13.7753 24.0947 13.3297C23.1686 12.8841 22.1073 12.6613 20.9108 12.6613H16.2064ZM23.0334 20.2937C22.4715 20.8222 21.7224 21.0865 20.7859 21.0865H18.9735C18.897 21.0865 18.835 21.0244 18.835 20.948V15.2558C18.835 15.1793 18.897 15.1173 18.9735 15.1173H20.7859C21.7224 15.1173 22.4715 15.3816 23.0334 15.9101C23.6056 16.4386 23.8918 17.1692 23.8918 18.1019C23.8918 19.0346 23.6056 19.7652 23.0334 20.2937Z" fill="url(#paint0_linear_2376_1626)"/>
</g>
</g>
<defs>
<linearGradient id="paint0_linear_2376_1626" x1="10.7581" y1="13.3182" x2="20.3557" y2="27.3246" gradientUnits="userSpaceOnUse">
<stop stop-color="#CC5CDC"/>
<stop offset="0.244792" stop-color="#7B66FF"/>
<stop offset="0.520833" stop-color="#1F8AF0"/>
<stop offset="0.760417" stop-color="#00D1FF"/>
<stop offset="1" stop-color="#3DEDD7"/>
</linearGradient>
</defs>
</svg>
