<svg width="24" height="36" viewBox="0 0 24 36" fill="none" xmlns="http://www.w3.org/2000/svg">
<g id="plug 1" clip-path="url(#clip0_2376_1502)">
<path id="Vector" d="M23.7366 10.6737C23.7366 9.91247 23.1184 9.29541 22.3559 9.29541H1.48982C0.727198 9.29541 0.109049 9.91247 0.109049 10.6737V17.5392C0.109049 24.0522 5.39824 29.3321 11.9229 29.3321C18.4474 29.3321 23.7366 24.0522 23.7366 17.5392V10.6737Z" fill="url(#paint0_linear_2376_1502)"/>
<path id="Vector_2" fill-rule="evenodd" clip-rule="evenodd" d="M1.0445 22.1475C2.8419 26.3713 7.03585 29.3335 11.9229 29.3335C18.4474 29.3335 23.7366 24.0536 23.7366 17.5406V12.5812C21.4928 11.3445 18.913 10.6406 16.1685 10.6406C8.94639 10.6406 2.86465 15.5148 1.0445 22.1475Z" fill="url(#paint1_linear_2376_1502)"/>
<path id="Vector_3" fill-rule="evenodd" clip-rule="evenodd" d="M3.86914 26.1765C5.97929 28.14 8.81049 29.3414 11.9229 29.3414C18.4474 29.3414 23.7366 24.0616 23.7366 17.5485V16.2879C21.7371 15.0397 19.3737 14.3182 16.8416 14.3182C10.0348 14.3182 4.44783 19.5316 3.86914 26.1765Z" fill="url(#paint2_linear_2376_1502)"/>
<path id="Vector_4" fill-rule="evenodd" clip-rule="evenodd" d="M7.94788 28.7113C8.1936 23.268 12.6759 18.9304 18.1694 18.9304C20.0787 18.9304 21.8659 19.4544 23.3955 20.3667C22.4444 24.2565 19.5772 27.3927 15.8533 28.7137V29.3728C15.8533 30.3272 15.3397 31.1613 14.5743 31.6129V33.4079C14.5743 34.3643 13.8004 35.1396 12.8459 35.1396H10.962C10.0074 35.1396 9.23354 34.3643 9.23354 33.4079V31.6129C8.46811 31.1613 7.95453 30.3272 7.95453 29.3728V28.7137C7.95226 28.7129 7.95007 28.7121 7.94788 28.7113Z" fill="url(#paint3_linear_2376_1502)"/>
<path id="Vector_5" d="M19.3264 1.38129C19.3264 1.09183 19.0913 0.857178 18.8014 0.857178H16.4037C16.1137 0.857178 15.8786 1.09183 15.8786 1.38129V9.29539H19.3264V1.38129Z" fill="white"/>
<path id="Vector_6" d="M8.05542 1.38129C8.05542 1.09183 7.82038 0.857178 7.53038 0.857178H5.13268C4.84269 0.857178 4.60764 1.09183 4.60764 1.38129V9.29539H8.05542V1.38129Z" fill="white"/>
<g id="Group" filter="url(#filter0_i_2376_1502)">
<path id="Vector_7" d="M17.8551 21.294C17.9106 21.2832 17.9616 21.3271 17.9581 21.3835C17.7825 24.1741 15.1437 26.3895 11.9141 26.3895C8.69191 26.3895 6.05777 24.1843 5.87129 21.4028C5.86753 21.3464 5.91846 21.3022 5.97394 21.3129C7.85342 21.6742 9.87562 22.0262 11.9141 22.0262C13.9883 22.0262 15.9497 21.6674 17.8551 21.294Z" fill="url(#paint4_linear_2376_1502)"/>
</g>
<path id="Vector_8" d="M17.584 21.7379C17.48 22.6147 14.921 23.6847 11.8752 23.6847C8.83624 23.6847 6.32471 22.612 6.21033 21.7379C7.98821 21.8516 8.1347 22.4168 11.8752 22.4168C15.8063 22.4168 15.7787 21.8553 17.584 21.7379Z" fill="url(#paint5_linear_2376_1502)"/>
<path id="Vector_9" d="M12.3696 16.0124C13.2584 17.6411 14.6478 19.2871 16.2529 19.244C17.8924 19.244 19.2214 17.7971 19.2214 16.0124C19.2214 14.2276 17.8924 12.7808 16.2529 12.7808C14.6134 12.7808 13.4052 14.2113 12.3696 16.0124Z" fill="url(#paint6_linear_2376_1502)"/>
<path id="Vector_10" d="M11.4944 16.0171C10.6056 17.6134 9.21623 19.2863 7.61108 19.244C5.97164 19.244 4.64258 17.7664 4.64258 16.0171C4.64258 14.2678 5.96298 12.7808 7.60251 12.7808C9.24195 12.7808 10.4588 14.2518 11.4944 16.0171Z" fill="url(#paint7_linear_2376_1502)"/>
<path id="Vector_11" d="M15.0949 17.3349C14.6639 17.3349 14.3146 16.9861 14.3146 16.5559C14.3146 16.1257 14.6639 15.777 15.0949 15.777C15.5259 15.777 15.8752 16.1257 15.8752 16.5559C15.8752 16.9861 15.5259 17.3349 15.0949 17.3349Z" fill="#031514"/>
<path id="Vector_12" d="M14.8224 17.1659C14.6771 17.1659 14.5592 17.0483 14.5592 16.9032C14.5592 16.758 14.6771 16.6404 14.8224 16.6404C14.9678 16.6404 15.0857 16.758 15.0857 16.9032C15.0857 17.0483 14.9678 17.1659 14.8224 17.1659Z" fill="white"/>
<path id="Vector_13" d="M8.76092 17.3349C8.32995 17.3349 7.98058 16.9861 7.98058 16.5559C7.98058 16.1257 8.32995 15.777 8.76092 15.777C9.19189 15.777 9.54126 16.1257 9.54126 16.5559C9.54126 16.9861 9.19189 17.3349 8.76092 17.3349Z" fill="#031514"/>
<path id="Vector_14" d="M8.48822 17.1659C8.34283 17.1659 8.22497 17.0483 8.22497 16.9032C8.22497 16.758 8.34283 16.6404 8.48822 16.6404C8.63361 16.6404 8.75146 16.758 8.75146 16.9032C8.75146 17.0483 8.63361 17.1659 8.48822 17.1659Z" fill="white"/>
<path id="Vector_15" d="M12.3531 16.0441L19.204 16.3972C19.2188 16.268 19.2298 16.2077 19.2298 16.113C19.2471 14.2099 17.9096 12.7633 16.2271 12.7633C14.5446 12.7633 13.2332 14.4253 12.3703 16.001C12.3776 16.0143 12.3457 16.0308 12.3531 16.0441Z" fill="#031514"/>
<path id="Vector_16" d="M11.5109 16.0441L4.65292 16.3972C4.63813 16.268 4.63586 16.2077 4.63586 16.113C4.57522 14.2444 5.95573 12.7633 7.63779 12.7633C9.31985 12.7633 10.631 14.4253 11.4936 16.001C11.4864 16.0143 11.5182 16.0308 11.5109 16.0441Z" fill="#031514"/>
<g id="Group_2" filter="url(#filter1_i_2376_1502)">
<path id="Vector_17" d="M7.65134 11.9684C9.73996 11.9684 11.2602 14.0502 11.9232 15.1613C12.5861 14.0502 14.1064 11.9684 16.195 11.9684C18.3031 11.9684 20.0176 13.7809 20.0176 16.0084C20.0176 18.236 18.3031 20.0485 16.195 20.0485C14.1067 20.0485 12.5861 17.9666 11.9232 16.8553C11.2602 17.9666 9.73996 20.0485 7.65134 20.0485C5.5433 20.0485 3.82877 18.236 3.82877 16.0084C3.82877 13.7809 5.5433 11.9684 7.65134 11.9684ZM16.195 19.2404C17.8564 19.2404 19.2081 17.7906 19.2081 16.0084C19.2081 14.2263 17.8564 12.7764 16.195 12.7764C14.2212 12.7764 12.743 15.3169 12.377 16.0084C12.743 16.7 14.2209 19.2404 16.195 19.2404ZM7.65134 19.2404C9.62515 19.2404 11.1033 16.7 11.4694 16.0084C11.1033 15.3169 9.62515 12.7764 7.65134 12.7764C5.98993 12.7764 4.63821 14.2263 4.63821 16.0084C4.63821 17.7906 5.98993 19.2404 7.65134 19.2404Z" fill="url(#paint8_linear_2376_1502)"/>
</g>
</g>
<defs>
<filter id="filter0_i_2376_1502" x="5.87109" y="21.2924" width="12.0872" height="5.09717" filterUnits="userSpaceOnUse" color-interpolation-filters="sRGB">
<feFlood flood-opacity="0" result="BackgroundImageFix"/>
<feBlend mode="normal" in="SourceGraphic" in2="BackgroundImageFix" result="shape"/>
<feColorMatrix in="SourceAlpha" type="matrix" values="0 0 0 0 0 0 0 0 0 0 0 0 0 0 0 0 0 0 127 0" result="hardAlpha"/>
<feOffset/>
<feGaussianBlur stdDeviation="15.25"/>
<feComposite in2="hardAlpha" operator="arithmetic" k2="-1" k3="1"/>
<feColorMatrix type="matrix" values="0 0 0 0 0 0 0 0 0 0 0 0 0 0 0 0 0 0 0.64 0"/>
<feBlend mode="normal" in2="shape" result="effect1_innerShadow_2376_1502"/>
</filter>
<filter id="filter1_i_2376_1502" x="3.82886" y="11.9684" width="16.1887" height="8.08008" filterUnits="userSpaceOnUse" color-interpolation-filters="sRGB">
<feFlood flood-opacity="0" result="BackgroundImageFix"/>
<feBlend mode="normal" in="SourceGraphic" in2="BackgroundImageFix" result="shape"/>
<feColorMatrix in="SourceAlpha" type="matrix" values="0 0 0 0 0 0 0 0 0 0 0 0 0 0 0 0 0 0 127 0" result="hardAlpha"/>
<feOffset/>
<feGaussianBlur stdDeviation="15.25"/>
<feComposite in2="hardAlpha" operator="arithmetic" k2="-1" k3="1"/>
<feColorMatrix type="matrix" values="0 0 0 0 0 0 0 0 0 0 0 0 0 0 0 0 0 0 0.64 0"/>
<feBlend mode="normal" in2="shape" result="effect1_innerShadow_2376_1502"/>
</filter>
<linearGradient id="paint0_linear_2376_1502" x1="7.97051" y1="16.7209" x2="-0.514412" y2="8.21221" gradientUnits="userSpaceOnUse">
<stop stop-color="#46FF47"/>
<stop offset="1" stop-color="#9CFF9D"/>
</linearGradient>
<linearGradient id="paint1_linear_2376_1502" x1="10.0243" y1="16.544" x2="7.14607" y2="11.5438" gradientUnits="userSpaceOnUse">
<stop stop-color="#10D9ED"/>
<stop offset="1" stop-color="#10D9ED" stop-opacity="0.3"/>
</linearGradient>
<linearGradient id="paint2_linear_2376_1502" x1="10.9563" y1="18.6729" x2="9.30514" y2="14.2718" gradientUnits="userSpaceOnUse">
<stop stop-color="#FA51D3"/>
<stop offset="0.958774" stop-color="#FA51D3" stop-opacity="0"/>
</linearGradient>
<linearGradient id="paint3_linear_2376_1502" x1="14.9642" y1="25.5168" x2="12.3119" y2="18.4404" gradientUnits="userSpaceOnUse">
<stop stop-color="#FFE700"/>
<stop offset="1" stop-color="#FFE700" stop-opacity="0"/>
</linearGradient>
<linearGradient id="paint4_linear_2376_1502" x1="11.9144" y1="21.2727" x2="11.9144" y2="26.3895" gradientUnits="userSpaceOnUse">
<stop/>
<stop offset="1" stop-opacity="0.65"/>
</linearGradient>
<linearGradient id="paint5_linear_2376_1502" x1="10.2575" y1="22.0135" x2="10.2575" y2="23.3918" gradientUnits="userSpaceOnUse">
<stop offset="0.75" stop-color="white"/>
<stop offset="1" stop-color="#DEDEDF"/>
</linearGradient>
<linearGradient id="paint6_linear_2376_1502" x1="14.8078" y1="13.696" x2="14.8078" y2="18.2723" gradientUnits="userSpaceOnUse">
<stop offset="0.75" stop-color="white"/>
<stop offset="1" stop-color="#DEDEDF"/>
</linearGradient>
<linearGradient id="paint7_linear_2376_1502" x1="9.05626" y1="13.696" x2="9.05618" y2="18.2723" gradientUnits="userSpaceOnUse">
<stop offset="0.75" stop-color="white"/>
<stop offset="1" stop-color="#DEDEDF"/>
</linearGradient>
<linearGradient id="paint8_linear_2376_1502" x1="11.9232" y1="11.9684" x2="11.9232" y2="20.0485" gradientUnits="userSpaceOnUse">
<stop/>
<stop offset="1" stop-opacity="0.65"/>
</linearGradient>
<clipPath id="clip0_2376_1502">
<rect width="23.6357" height="34.2857" fill="white" transform="matrix(-1 0 0 1 23.7366 0.857178)"/>
</clipPath>
</defs>
</svg>
